{
	"asset":{
		"generator":"Khronos glTF Blender I/O v4.0.44",
		"version":"2.0"
	},
	"scene":0,
	"scenes":[
		{
			"name":"Scene",
			"nodes":[
				0
			]
		}
	],
	"nodes":[
		{
			"mesh":0,
			"name":"ToyCar",
			"translation":[
				-0.6607540249824524,
				-0.4289470911026001,
				0.6024115681648254
			]
		}
	],
	"materials":[
		{
			"doubleSided":true,
			"emissiveFactor":[
				1,
				1,
				1
			],
			"emissiveTexture":{
				"index":0
			},
			"name":"ToyCar",
			"normalTexture":{
				"index":1
			},
			"occlusionTexture":{
				"index":2
			},
			"pbrMetallicRoughness":{
				"baseColorTexture":{
					"index":3
				},
				"metallicFactor":0.9545454382896423,
				"roughnessFactor":0.10454544425010681
			}
		}
	],
	"meshes":[
		{
			"name":"ToyCar",
			"primitives":[
				{
					"attributes":{
						"POSITION":0,
						"NORMAL":1,
						"TEXCOORD_0":2
					},
					"indices":3,
					"material":0
				}
			]
		}
	],
	"textures":[
		{
			"sampler":0,
			"source":0
		},
		{
			"sampler":0,
			"source":1
		},
		{
			"sampler":0,
			"source":2
		},
		{
			"sampler":0,
			"source":3
		}
	],
	"images":[
		{
			"mimeType":"image/png",
			"name":"ToyCar_emissive",
			"uri":"ToyCar_emissive.png"
		},
		{
			"mimeType":"image/png",
			"name":"ToyCar_normal",
			"uri":"ToyCar_normal.png"
		},
		{
			"mimeType":"image/png",
			"name":"ToyCar_occlusion_roughness_metallic",
			"uri":"ToyCar_occlusion_roughness_metallic.png"
		},
		{
			"mimeType":"image/png",
			"name":"ToyCar_basecolor",
			"uri":"ToyCar_basecolor.png"
		}
	],
	"accessors":[
		{
			"bufferView":0,
			"componentType":5126,
			"count":67808,
			"max":[
				0.09372067451477051,
				0.0715411901473999,
				0.1526494026184082
			],
			"min":[
				-0.09335458278656006,
				-0.044700831174850464,
				-0.23114484548568726
			],
			"type":"VEC3"
		},
		{
			"bufferView":1,
			"componentType":5126,
			"count":67808,
			"type":"VEC3"
		},
		{
			"bufferView":2,
			"componentType":5126,
			"count":67808,
			"type":"VEC2"
		},
		{
			"bufferView":3,
			"componentType":5125,
			"count":266511,
			"type":"SCALAR"
		}
	],
	"bufferViews":[
		{
			"buffer":0,
			"byteLength":813696,
			"byteOffset":0,
			"target":34962
		},
		{
			"buffer":0,
			"byteLength":813696,
			"byteOffset":813696,
			"target":34962
		},
		{
			"buffer":0,
			"byteLength":542464,
			"byteOffset":1627392,
			"target":34962
		},
		{
			"buffer":0,
			"byteLength":1066044,
			"byteOffset":2169856,
			"target":34963
		}
	],
	"samplers":[
		{
			"magFilter":9729,
			"minFilter":9987
		}
	],
	"buffers":[
		{
			"byteLength":3235900,
			"uri":"car.bin"
		}
	]
}
