{
	"asset":{
		"generator":"Khronos glTF Blender I/O v4.0.44",
		"version":"2.0"
	},
	"scene":0,
	"scenes":[
		{
			"name":"Scene",
			"nodes":[
				0
			]
		}
	],
	"nodes":[
		{
			"mesh":0,
			"name":"ToyCar2",
			"translation":[
				0.24714983999729156,
				-0.4289470911026001,
				0.6024115681648254
			]
		}
	],
	"materials":[
		{
			"doubleSided":true,
			"name":"ToyCar2",
			"normalTexture":{
				"index":0
			},
			"pbrMetallicRoughness":{
				"baseColorTexture":{
					"index":1
				},
				"metallicFactor":0.8909090757369995,
				"roughnessFactor":0.19999998807907104
			}
		}
	],
	"meshes":[
		{
			"name":"ToyCar2",
			"primitives":[
				{
					"attributes":{
						"POSITION":0,
						"NORMAL":1,
						"TEXCOORD_0":2
					},
					"indices":3,
					"material":0
				}
			]
		}
	],
	"textures":[
		{
			"sampler":0,
			"source":0
		},
		{
			"sampler":0,
			"source":1
		}
	],
	"images":[
		{
			"mimeType":"image/png",
			"name":"ToyCar_normal",
			"uri":"ToyCar_normal.png"
		},
		{
			"mimeType":"image/png",
			"name":"ToyCar_basecolor",
			"uri":"ToyCar_basecolor.png"
		}
	],
	"accessors":[
		{
			"bufferView":0,
			"componentType":5126,
			"count":67755,
			"max":[
				0.09372596442699432,
				0.0715411901473999,
				0.1526494026184082
			],
			"min":[
				-0.09334932267665863,
				-0.044700831174850464,
				-0.23114484548568726
			],
			"type":"VEC3"
		},
		{
			"bufferView":1,
			"componentType":5126,
			"count":67755,
			"type":"VEC3"
		},
		{
			"bufferView":2,
			"componentType":5126,
			"count":67755,
			"type":"VEC2"
		},
		{
			"bufferView":3,
			"componentType":5125,
			"count":266511,
			"type":"SCALAR"
		}
	],
	"bufferViews":[
		{
			"buffer":0,
			"byteLength":813060,
			"byteOffset":0,
			"target":34962
		},
		{
			"buffer":0,
			"byteLength":813060,
			"byteOffset":813060,
			"target":34962
		},
		{
			"buffer":0,
			"byteLength":542040,
			"byteOffset":1626120,
			"target":34962
		},
		{
			"buffer":0,
			"byteLength":1066044,
			"byteOffset":2168160,
			"target":34963
		}
	],
	"samplers":[
		{
			"magFilter":9729,
			"minFilter":9987
		}
	],
	"buffers":[
		{
			"byteLength":3234204,
			"uri":"car2.bin"
		}
	]
}
