{
    "asset":{
        "generator":"Khronos glTF Blender I/O v4.0.43",
        "version":"2.0"
    },
    "extensionsUsed":[
        "KHR_materials_specular",
        "KHR_materials_sheen",
        "KHR_materials_ior"
    ],
    "scene":0,
    "scenes":[
        {
            "name":"Cube Diorama",
            "nodes":[
                0
            ]
        }
    ],
    "nodes":[
        {
            "mesh":0,
            "name":"Rug.001",
            "translation":[
                -0.1071462631225586,
                -0.9996792674064636,
                -0.01989518105983734
            ]
        }
    ],
    "materials":[
        {
            "doubleSided":true,
            "extensions":{
                "KHR_materials_specular":{
                    "specularFactor":0.10000000149011612
                },
                "KHR_materials_sheen":{
                    "sheenColorFactor":[
                        1.0,
                        1.0,
                        1.0
                    ],
                    "sheenRoughnessFactor":0.5
                },
                "KHR_materials_ior":{
                    "ior":1.4500000476837158
                }
            },
            "name":"Rug",
            "normalTexture":{
                "index":0
            },
            "pbrMetallicRoughness":{
                "baseColorTexture":{
                    "index":1
                },
                "metallicFactor":0,
                "roughnessFactor":0.800000011920929
            }
        }
    ],
    "meshes":[
        {
            "name":"Plane.001",
            "primitives":[
                {
                    "attributes":{
                        "POSITION":0,
                        "NORMAL":1,
                        "TEXCOORD_0":2
                    },
                    "indices":3,
                    "material":0
                }
            ]
        }
    ],
    "textures":[
        {
            "sampler":0,
            "source":0
        },
        {
            "sampler":0,
            "source":1
        }
    ],
    "images":[
        {
            "mimeType":"image/png",
            "name":"rug_normal",
            "uri":"rug_normal.png"
        },
        {
            "mimeType":"image/png",
            "name":"rug",
            "uri":"rug.png"
        }
    ],
    "accessors":[
        {
            "bufferView":0,
            "componentType":5126,
            "count":337,
            "max":[
                0.379609078168869,
                0.01664220355451107,
                0.379609078168869
            ],
            "min":[
                -0.379609078168869,
                -0.0003206497058272362,
                -0.379609078168869
            ],
            "type":"VEC3"
        },
        {
            "bufferView":1,
            "componentType":5126,
            "count":337,
            "type":"VEC3"
        },
        {
            "bufferView":2,
            "componentType":5126,
            "count":337,
            "type":"VEC2"
        },
        {
            "bufferView":3,
            "componentType":5123,
            "count":1920,
            "type":"SCALAR"
        }
    ],
    "bufferViews":[
        {
            "buffer":0,
            "byteLength":4044,
            "byteOffset":0,
            "target":34962
        },
        {
            "buffer":0,
            "byteLength":4044,
            "byteOffset":4044,
            "target":34962
        },
        {
            "buffer":0,
            "byteLength":2696,
            "byteOffset":8088,
            "target":34962
        },
        {
            "buffer":0,
            "byteLength":3840,
            "byteOffset":10784,
            "target":34963
        }
    ],
    "samplers":[
        {
            "magFilter":9729,
            "minFilter":9987
        }
    ],
    "buffers":[
        {
            "byteLength":14624,
            "uri":"rug.bin"
        }
    ]
}
