{
	"asset":{
		"generator":"Khronos glTF Blender I/O v4.0.44",
		"version":"2.0"
	},
	"scene":0,
	"scenes":[
		{
			"name":"Scene",
			"nodes":[
				0
			]
		}
	],
	"nodes":[
		{
			"mesh":0,
			"name":"barrel"
		}
	],
	"materials":[
		{
			"doubleSided":true,
			"name":"barrel material",
			"normalTexture":{
				"index":0
			},
			"pbrMetallicRoughness":{
				"baseColorTexture":{
					"index":1
				},
				"metallicFactor":0,
				"roughnessFactor":0.6000000238418579
			}
		}
	],
	"meshes":[
		{
			"name":"barrel mesh",
			"primitives":[
				{
					"attributes":{
						"POSITION":0,
						"NORMAL":1,
						"TEXCOORD_0":2,
						"TANGENT":3
					},
					"indices":4,
					"material":0
				}
			]
		}
	],
	"textures":[
		{
			"sampler":0,
			"source":0
		},
		{
			"sampler":0,
			"source":1
		}
	],
	"images":[
		{
			"mimeType":"image/png",
			"name":"barrelNormal",
			"uri":"barrelNormal.png"
		},
		{
			"mimeType":"image/png",
			"name":"barrel",
			"uri":"barrel.png"
		}
	],
	"accessors":[
		{
			"bufferView":0,
			"componentType":5126,
			"count":1553,
			"max":[
				0.24181821942329407,
				0.30281826853752136,
				0.23702402412891388
			],
			"min":[
				-0.23012393712997437,
				-0.3002350628376007,
				-0.2349182516336441
			],
			"type":"VEC3"
		},
		{
			"bufferView":1,
			"componentType":5126,
			"count":1553,
			"type":"VEC3"
		},
		{
			"bufferView":2,
			"componentType":5126,
			"count":1553,
			"type":"VEC2"
		},
		{
			"bufferView":3,
			"componentType":5126,
			"count":1553,
			"type":"VEC4"
		},
		{
			"bufferView":4,
			"componentType":5123,
			"count":4800,
			"type":"SCALAR"
		}
	],
	"bufferViews":[
		{
			"buffer":0,
			"byteLength":18636,
			"byteOffset":0,
			"target":34962
		},
		{
			"buffer":0,
			"byteLength":18636,
			"byteOffset":18636,
			"target":34962
		},
		{
			"buffer":0,
			"byteLength":12424,
			"byteOffset":37272,
			"target":34962
		},
		{
			"buffer":0,
			"byteLength":24848,
			"byteOffset":49696,
			"target":34962
		},
		{
			"buffer":0,
			"byteLength":9600,
			"byteOffset":74544,
			"target":34963
		}
	],
	"samplers":[
		{
			"magFilter":9729,
			"minFilter":9987
		}
	],
	"buffers":[
		{
			"byteLength":84144,
			"uri":"barrel.bin"
		}
	]
}
