{
	"asset":{
		"generator":"Khronos glTF Blender I/O v4.0.44",
		"version":"2.0"
	},
	"scene":0,
	"scenes":[
		{
			"name":"Scene",
			"nodes":[
				0
			]
		}
	],
	"nodes":[
		{
			"mesh":0,
			"name":"Landscape",
			"scale":[
				40,
				40,
				40
			]
		}
	],
	"materials":[
		{
			"doubleSided":true,
			"name":"sand",
			"normalTexture":{
				"index":0
			},
			"pbrMetallicRoughness":{
				"baseColorTexture":{
					"index":1
				},
				"metallicRoughnessTexture":{
					"index":2
				}
			}
		}
	],
	"meshes":[
		{
			"name":"Landscape mesh",
			"primitives":[
				{
					"attributes":{
						"POSITION":0,
						"NORMAL":1,
						"TEXCOORD_0":2,
						"TANGENT":3
					},
					"indices":4,
					"material":0
				}
			]
		}
	],
	"textures":[
		{
			"sampler":0,
			"source":0
		},
		{
			"sampler":0,
			"source":1
		},
		{
			"sampler":0,
			"source":2
		}
	],
	"images":[
		{
			"mimeType":"image/png",
			"name":"text_Normal",
			"uri":"text_Normal.png"
		},
		{
			"mimeType":"image/png",
			"name":"text_Albedo",
			"uri":"text_Albedo.png"
		},
		{
			"mimeType":"image/png",
			"name":"text_Metalness-text_Roughness",
			"uri":"text_Metalness-text_Roughness.png"
		}
	],
	"accessors":[
		{
			"bufferView":0,
			"componentType":5126,
			"count":63200,
			"max":[
				1,
				0.3370383381843567,
				1
			],
			"min":[
				-1,
				0.004584213253110647,
				-1
			],
			"type":"VEC3"
		},
		{
			"bufferView":1,
			"componentType":5126,
			"count":63200,
			"type":"VEC3"
		},
		{
			"bufferView":2,
			"componentType":5126,
			"count":63200,
			"type":"VEC2"
		},
		{
			"bufferView":3,
			"componentType":5126,
			"count":63200,
			"type":"VEC4"
		},
		{
			"bufferView":4,
			"componentType":5123,
			"count":237606,
			"type":"SCALAR"
		}
	],
	"bufferViews":[
		{
			"buffer":0,
			"byteLength":758400,
			"byteOffset":0,
			"target":34962
		},
		{
			"buffer":0,
			"byteLength":758400,
			"byteOffset":758400,
			"target":34962
		},
		{
			"buffer":0,
			"byteLength":505600,
			"byteOffset":1516800,
			"target":34962
		},
		{
			"buffer":0,
			"byteLength":1011200,
			"byteOffset":2022400,
			"target":34962
		},
		{
			"buffer":0,
			"byteLength":475212,
			"byteOffset":3033600,
			"target":34963
		}
	],
	"samplers":[
		{
			"magFilter":9729,
			"minFilter":9987
		}
	],
	"buffers":[
		{
			"byteLength":3508812,
			"uri":"sand.bin"
		}
	]
}
