{
	"asset":{
		"generator":"Khronos glTF Blender I/O v4.0.44",
		"version":"2.0"
	},
	"scene":0,
	"scenes":[
		{
			"name":"Scene",
			"nodes":[
				0,
				1
			]
		}
	],
	"nodes":[
		{
			"mesh":0,
			"name":"arrow"
		},
		{
			"mesh":1,
			"name":"ViewFrustum",
			"scale":[
				1.0472118854522705,
				1.0472118854522705,
				1.0472118854522705
			],
			"translation":[
				0,
				2.390835762023926,
				0
			]
		}
	],
	"materials":[
		{
			"doubleSided":true,
			"name":"Material.002",
			"pbrMetallicRoughness":{
				"baseColorFactor":[
					0.854992687702179,
					0.9093259572982788,
					1,
					1
				],
				"roughnessFactor":0.5
			}
		},
		{
			"doubleSided":true,
			"name":"Metal.003",
			"pbrMetallicRoughness":{
				"baseColorFactor":[
					0,
					0,
					0,
					1
				],
				"metallicFactor":0,
				"roughnessFactor":0.5
			}
		},
		{
			"doubleSided":true,
			"name":"Plastic.003",
			"pbrMetallicRoughness":{
				"baseColorFactor":[
					0.3762524425983429,
					0.3762524425983429,
					0.3762524425983429,
					1
				],
				"metallicFactor":0,
				"roughnessFactor":0.5
			}
		},
		{
			"doubleSided":true,
			"emissiveFactor":[
				1,
				1,
				1
			],
			"name":"Light.003",
			"pbrMetallicRoughness":{
				"baseColorFactor":[
					0.800000011920929,
					0.800000011920929,
					0.800000011920929,
					1
				],
				"metallicFactor":0,
				"roughnessFactor":0.5
			}
		},
		{
			"doubleSided":true,
			"name":"Material.001",
			"pbrMetallicRoughness":{
				"baseColorFactor":[
					0.11605895310640335,
					0.06683606654405594,
					0.8003629446029663,
					1
				],
				"metallicFactor":0.8602150678634644,
				"roughnessFactor":0.09139785170555115
			}
		}
	],
	"meshes":[
		{
			"name":"Cylinder.003",
			"primitives":[
				{
					"attributes":{
						"POSITION":0,
						"NORMAL":1,
						"TEXCOORD_0":2,
						"TANGENT":3
					},
					"indices":4,
					"material":0
				},
				{
					"attributes":{
						"POSITION":5,
						"NORMAL":6,
						"TEXCOORD_0":7,
						"TANGENT":8
					},
					"indices":9,
					"material":1
				},
				{
					"attributes":{
						"POSITION":10,
						"NORMAL":11,
						"TEXCOORD_0":12,
						"TANGENT":13
					},
					"indices":14,
					"material":2
				},
				{
					"attributes":{
						"POSITION":15,
						"NORMAL":16,
						"TEXCOORD_0":17,
						"TANGENT":18
					},
					"indices":19,
					"material":3
				}
			]
		},
		{
			"name":"Cube.001",
			"primitives":[
				{
					"attributes":{
						"POSITION":20,
						"NORMAL":21,
						"TEXCOORD_0":22,
						"TANGENT":23
					},
					"indices":24,
					"material":4
				}
			]
		}
	],
	"accessors":[
		{
			"bufferView":0,
			"componentType":5126,
			"count":543,
			"max":[
				0.12391655892133713,
				-7.917414665222168,
				0.31705474853515625
			],
			"min":[
				-0.276083379983902,
				-18.429630279541016,
				-0.08294520527124405
			],
			"type":"VEC3"
		},
		{
			"bufferView":1,
			"componentType":5126,
			"count":543,
			"type":"VEC3"
		},
		{
			"bufferView":2,
			"componentType":5126,
			"count":543,
			"type":"VEC2"
		},
		{
			"bufferView":3,
			"componentType":5126,
			"count":543,
			"type":"VEC4"
		},
		{
			"bufferView":4,
			"componentType":5123,
			"count":558,
			"type":"SCALAR"
		},
		{
			"bufferView":5,
			"componentType":5126,
			"count":4275,
			"max":[
				1.5836825370788574,
				0.7768468856811523,
				1.583682894706726
			],
			"min":[
				-1.583682656288147,
				-1.0513629913330078,
				-1.583682656288147
			],
			"type":"VEC3"
		},
		{
			"bufferView":6,
			"componentType":5126,
			"count":4275,
			"type":"VEC3"
		},
		{
			"bufferView":7,
			"componentType":5126,
			"count":4275,
			"type":"VEC2"
		},
		{
			"bufferView":8,
			"componentType":5126,
			"count":4275,
			"type":"VEC4"
		},
		{
			"bufferView":9,
			"componentType":5123,
			"count":24576,
			"type":"SCALAR"
		},
		{
			"bufferView":10,
			"componentType":5126,
			"count":1316,
			"max":[
				2.8598833084106445,
				1.3017816543579102,
				2.8598833084106445
			],
			"min":[
				-2.8598833084106445,
				-4.330810070037842,
				-2.8598833084106445
			],
			"type":"VEC3"
		},
		{
			"bufferView":11,
			"componentType":5126,
			"count":1316,
			"type":"VEC3"
		},
		{
			"bufferView":12,
			"componentType":5126,
			"count":1316,
			"type":"VEC2"
		},
		{
			"bufferView":13,
			"componentType":5126,
			"count":1316,
			"type":"VEC4"
		},
		{
			"bufferView":14,
			"componentType":5123,
			"count":5568,
			"type":"SCALAR"
		},
		{
			"bufferView":15,
			"componentType":5126,
			"count":988,
			"max":[
				3.3285789489746094,
				-4.330809593200684,
				3.3285787105560303
			],
			"min":[
				-3.3285787105560303,
				-8.149669647216797,
				-3.3285787105560303
			],
			"type":"VEC3"
		},
		{
			"bufferView":16,
			"componentType":5126,
			"count":988,
			"type":"VEC3"
		},
		{
			"bufferView":17,
			"componentType":5126,
			"count":988,
			"type":"VEC2"
		},
		{
			"bufferView":18,
			"componentType":5126,
			"count":988,
			"type":"VEC4"
		},
		{
			"bufferView":19,
			"componentType":5123,
			"count":4800,
			"type":"SCALAR"
		},
		{
			"bufferView":20,
			"componentType":5126,
			"count":24,
			"max":[
				1,
				1,
				1
			],
			"min":[
				-1,
				-1,
				-1
			],
			"type":"VEC3"
		},
		{
			"bufferView":21,
			"componentType":5126,
			"count":24,
			"type":"VEC3"
		},
		{
			"bufferView":22,
			"componentType":5126,
			"count":24,
			"type":"VEC2"
		},
		{
			"bufferView":23,
			"componentType":5126,
			"count":24,
			"type":"VEC4"
		},
		{
			"bufferView":24,
			"componentType":5123,
			"count":36,
			"type":"SCALAR"
		}
	],
	"bufferViews":[
		{
			"buffer":0,
			"byteLength":6516,
			"byteOffset":0,
			"target":34962
		},
		{
			"buffer":0,
			"byteLength":6516,
			"byteOffset":6516,
			"target":34962
		},
		{
			"buffer":0,
			"byteLength":4344,
			"byteOffset":13032,
			"target":34962
		},
		{
			"buffer":0,
			"byteLength":8688,
			"byteOffset":17376,
			"target":34962
		},
		{
			"buffer":0,
			"byteLength":1116,
			"byteOffset":26064,
			"target":34963
		},
		{
			"buffer":0,
			"byteLength":51300,
			"byteOffset":27180,
			"target":34962
		},
		{
			"buffer":0,
			"byteLength":51300,
			"byteOffset":78480,
			"target":34962
		},
		{
			"buffer":0,
			"byteLength":34200,
			"byteOffset":129780,
			"target":34962
		},
		{
			"buffer":0,
			"byteLength":68400,
			"byteOffset":163980,
			"target":34962
		},
		{
			"buffer":0,
			"byteLength":49152,
			"byteOffset":232380,
			"target":34963
		},
		{
			"buffer":0,
			"byteLength":15792,
			"byteOffset":281532,
			"target":34962
		},
		{
			"buffer":0,
			"byteLength":15792,
			"byteOffset":297324,
			"target":34962
		},
		{
			"buffer":0,
			"byteLength":10528,
			"byteOffset":313116,
			"target":34962
		},
		{
			"buffer":0,
			"byteLength":21056,
			"byteOffset":323644,
			"target":34962
		},
		{
			"buffer":0,
			"byteLength":11136,
			"byteOffset":344700,
			"target":34963
		},
		{
			"buffer":0,
			"byteLength":11856,
			"byteOffset":355836,
			"target":34962
		},
		{
			"buffer":0,
			"byteLength":11856,
			"byteOffset":367692,
			"target":34962
		},
		{
			"buffer":0,
			"byteLength":7904,
			"byteOffset":379548,
			"target":34962
		},
		{
			"buffer":0,
			"byteLength":15808,
			"byteOffset":387452,
			"target":34962
		},
		{
			"buffer":0,
			"byteLength":9600,
			"byteOffset":403260,
			"target":34963
		},
		{
			"buffer":0,
			"byteLength":288,
			"byteOffset":412860,
			"target":34962
		},
		{
			"buffer":0,
			"byteLength":288,
			"byteOffset":413148,
			"target":34962
		},
		{
			"buffer":0,
			"byteLength":192,
			"byteOffset":413436,
			"target":34962
		},
		{
			"buffer":0,
			"byteLength":384,
			"byteOffset":413628,
			"target":34962
		},
		{
			"buffer":0,
			"byteLength":72,
			"byteOffset":414012,
			"target":34963
		}
	],
	"buffers":[
		{
			"byteLength":414084,
			"uri":"lightBulb2.bin"
		}
	]
}
