{
	"asset":{
		"generator":"Khronos glTF Blender I/O v4.0.44",
		"version":"2.0"
	},
	"scene":0,
	"scenes":[
		{
			"name":"Scene",
			"nodes":[
				6,
				7
			]
		}
	],
	"nodes":[
		{
			"mesh":0,
			"name":"duck",
			"scale":[
				0.6354975700378418,
				0.6354975700378418,
				0.6354975700378418
			],
			"translation":[
				-2.211991786956787,
				0.13614970445632935,
				1.76338791847229
			]
		},
		{
			"name":"Empty",
			"scale":[
				0.6354975700378418,
				0.6354975700378418,
				0.6354975700378418
			],
			"translation":[
				0.521126389503479,
				0.3033387362957001,
				-1.6068016290664673
			]
		},
		{
			"mesh":1,
			"name":"Simple cube 2",
			"scale":[
				0.6354975700378418,
				0.6354975700378418,
				0.6354975700378418
			],
			"translation":[
				-2.3272578716278076,
				-0.0016508381813764572,
				0.26046085357666016
			]
		},
		{
			"children":[
				1,
				2
			],
			"name":"Empty 3rd",
			"scale":[
				1.5735704898834229,
				1.5735704898834229,
				1.5735704898834229
			],
			"translation":[
				3.6592180728912354,
				-0.013157118111848831,
				-2.609492301940918
			]
		},
		{
			"children":[
				3
			],
			"mesh":2,
			"name":"Simple cube 1",
			"scale":[
				0.6354975700378418,
				0.6354975700378418,
				0.6354975700378418
			],
			"translation":[
				-2.2453885078430176,
				0.06842680275440216,
				0.6647173762321472
			]
		},
		{
			"children":[
				0,
				4
			],
			"name":"Empty 2nd",
			"translation":[
				-0.03511345386505127,
				-0.03280038759112358,
				-1.3964834213256836
			]
		},
		{
			"children":[
				5
			],
			"name":"Empty root",
			"translation":[
				0.08311273157596588,
				-0.0019129998981952667,
				2.2684075832366943
			]
		},
		{
			"mesh":3,
			"name":"Suzanne",
			"translation":[
				-2.0467939376831055,
				0,
				-3.094419479370117
			]
		}
	],
	"materials":[
		{
			"name":"duck material",
			"pbrMetallicRoughness":{
				"baseColorTexture":{
					"index":0
				},
				"metallicFactor":0.10000000149011612,
				"roughnessFactor":0.10000000149011612
			}
		},
		{
			"doubleSided":true,
			"name":"Simple material",
			"normalTexture":{
				"index":1
			},
			"pbrMetallicRoughness":{
				"baseColorTexture":{
					"index":2
				},
				"metallicRoughnessTexture":{
					"index":3
				}
			}
		},
		{
			"doubleSided":true,
			"name":"Material.001",
			"pbrMetallicRoughness":{
				"baseColorFactor":[
					0.800000011920929,
					0.800000011920929,
					0.800000011920929,
					1
				],
				"metallicFactor":0.787401556968689,
				"roughnessFactor":0.16141733527183533
			}
		}
	],
	"meshes":[
		{
			"name":"duck mesh",
			"primitives":[
				{
					"attributes":{
						"POSITION":0,
						"NORMAL":1,
						"TEXCOORD_0":2,
						"TANGENT":3
					},
					"indices":4,
					"material":0
				}
			]
		},
		{
			"name":"Simple cube mesh 2",
			"primitives":[
				{
					"attributes":{
						"POSITION":5,
						"NORMAL":6,
						"TEXCOORD_0":7,
						"TANGENT":8
					},
					"indices":9,
					"material":1
				}
			]
		},
		{
			"name":"Simple cube mesh 1",
			"primitives":[
				{
					"attributes":{
						"POSITION":10,
						"NORMAL":11,
						"TEXCOORD_0":12,
						"TANGENT":13
					},
					"indices":9,
					"material":1
				}
			]
		},
		{
			"name":"Suzanne",
			"primitives":[
				{
					"attributes":{
						"POSITION":14,
						"NORMAL":15,
						"TEXCOORD_0":16,
						"TANGENT":17
					},
					"indices":18,
					"material":2
				}
			]
		}
	],
	"textures":[
		{
			"sampler":0,
			"source":0
		},
		{
			"sampler":0,
			"source":1
		},
		{
			"sampler":0,
			"source":2
		},
		{
			"sampler":0,
			"source":3
		}
	],
	"images":[
		{
			"mimeType":"image/png",
			"name":"duckCM",
			"uri":"duckCM.png"
		},
		{
			"mimeType":"image/png",
			"name":"ToyCar_normal",
			"uri":"ToyCar_normal.png"
		},
		{
			"mimeType":"image/png",
			"name":"diceUVs",
			"uri":"diceUVs.png"
		},
		{
			"mimeType":"image/png",
			"name":"metallic-roughness",
			"uri":"metallic-roughness.png"
		}
	],
	"accessors":[
		{
			"bufferView":0,
			"componentType":5126,
			"count":2661,
			"max":[
				0.3678557574748993,
				0.3861968219280243,
				0.3601677119731903
			],
			"min":[
				-0.5964387059211731,
				-0.5114453434944153,
				-0.31144919991493225
			],
			"type":"VEC3"
		},
		{
			"bufferView":1,
			"componentType":5126,
			"count":2661,
			"type":"VEC3"
		},
		{
			"bufferView":2,
			"componentType":5126,
			"count":2661,
			"type":"VEC2"
		},
		{
			"bufferView":3,
			"componentType":5126,
			"count":2661,
			"type":"VEC4"
		},
		{
			"bufferView":4,
			"componentType":5123,
			"count":12636,
			"type":"SCALAR"
		},
		{
			"bufferView":5,
			"componentType":5126,
			"count":24,
			"max":[
				0.5097274780273438,
				0.5097274780273438,
				0.5097274780273438
			],
			"min":[
				-0.5097274780273438,
				-0.5097274780273438,
				-0.5097274780273438
			],
			"type":"VEC3"
		},
		{
			"bufferView":6,
			"componentType":5126,
			"count":24,
			"type":"VEC3"
		},
		{
			"bufferView":7,
			"componentType":5126,
			"count":24,
			"type":"VEC2"
		},
		{
			"bufferView":8,
			"componentType":5126,
			"count":24,
			"type":"VEC4"
		},
		{
			"bufferView":9,
			"componentType":5123,
			"count":36,
			"type":"SCALAR"
		},
		{
			"bufferView":10,
			"componentType":5126,
			"count":24,
			"max":[
				0.5097274780273438,
				0.5097274780273438,
				0.5097274780273438
			],
			"min":[
				-0.5097274780273438,
				-0.5097274780273438,
				-0.5097274780273438
			],
			"type":"VEC3"
		},
		{
			"bufferView":11,
			"componentType":5126,
			"count":24,
			"type":"VEC3"
		},
		{
			"bufferView":12,
			"componentType":5126,
			"count":24,
			"type":"VEC2"
		},
		{
			"bufferView":13,
			"componentType":5126,
			"count":24,
			"type":"VEC4"
		},
		{
			"bufferView":14,
			"componentType":5126,
			"count":1966,
			"max":[
				1.3671875,
				0.984375,
				0.8515625
			],
			"min":[
				-1.3671875,
				-0.984375,
				-0.8515625
			],
			"type":"VEC3"
		},
		{
			"bufferView":15,
			"componentType":5126,
			"count":1966,
			"type":"VEC3"
		},
		{
			"bufferView":16,
			"componentType":5126,
			"count":1966,
			"type":"VEC2"
		},
		{
			"bufferView":17,
			"componentType":5126,
			"count":1966,
			"type":"VEC4"
		},
		{
			"bufferView":18,
			"componentType":5123,
			"count":2904,
			"type":"SCALAR"
		}
	],
	"bufferViews":[
		{
			"buffer":0,
			"byteLength":31932,
			"byteOffset":0,
			"target":34962
		},
		{
			"buffer":0,
			"byteLength":31932,
			"byteOffset":31932,
			"target":34962
		},
		{
			"buffer":0,
			"byteLength":21288,
			"byteOffset":63864,
			"target":34962
		},
		{
			"buffer":0,
			"byteLength":42576,
			"byteOffset":85152,
			"target":34962
		},
		{
			"buffer":0,
			"byteLength":25272,
			"byteOffset":127728,
			"target":34963
		},
		{
			"buffer":0,
			"byteLength":288,
			"byteOffset":153000,
			"target":34962
		},
		{
			"buffer":0,
			"byteLength":288,
			"byteOffset":153288,
			"target":34962
		},
		{
			"buffer":0,
			"byteLength":192,
			"byteOffset":153576,
			"target":34962
		},
		{
			"buffer":0,
			"byteLength":384,
			"byteOffset":153768,
			"target":34962
		},
		{
			"buffer":0,
			"byteLength":72,
			"byteOffset":154152,
			"target":34963
		},
		{
			"buffer":0,
			"byteLength":288,
			"byteOffset":154224,
			"target":34962
		},
		{
			"buffer":0,
			"byteLength":288,
			"byteOffset":154512,
			"target":34962
		},
		{
			"buffer":0,
			"byteLength":192,
			"byteOffset":154800,
			"target":34962
		},
		{
			"buffer":0,
			"byteLength":384,
			"byteOffset":154992,
			"target":34962
		},
		{
			"buffer":0,
			"byteLength":23592,
			"byteOffset":155376,
			"target":34962
		},
		{
			"buffer":0,
			"byteLength":23592,
			"byteOffset":178968,
			"target":34962
		},
		{
			"buffer":0,
			"byteLength":15728,
			"byteOffset":202560,
			"target":34962
		},
		{
			"buffer":0,
			"byteLength":31456,
			"byteOffset":218288,
			"target":34962
		},
		{
			"buffer":0,
			"byteLength":5808,
			"byteOffset":249744,
			"target":34963
		}
	],
	"samplers":[
		{
			"magFilter":9729,
			"minFilter":9987
		}
	],
	"buffers":[
		{
			"byteLength":255552,
			"uri":"simple2.bin"
		}
	]
}
