{
    "asset":{
        "generator":"Khronos glTF Blender I/O v4.0.44",
        "version":"2.0"
    },
    "extensionsUsed":[
        "KHR_materials_emissive_strength"
    ],
    "scene":0,
    "scenes":[
        {
            "name":"Scene",
            "nodes":[
                0,
                1
            ]
        }
    ],
    "nodes":[
        {
            "mesh":0,
            "name":"Cube"
        },
        {
            "mesh":1,
            "name":"Plane",
            "scale":[
                6.3152923583984375,
                1,
                6.231688022613525
            ],
            "translation":[
                -0.9871871471405029,
                -1.6124629974365234,
                -0.7775943279266357
            ]
        }
    ],
    "materials":[
        {
            "doubleSided":true,
            "name":"DarkMetallic",
            "pbrMetallicRoughness":{
                "baseColorFactor":[
                    0.42027390003204346,
                    0.042027391493320465,
                    0.042027391493320465,
                    1
                ],
                "metallicFactor":0.6894736886024475,
                "roughnessFactor":0.2052631378173828
            }
        },
        {
            "doubleSided":true,
            "emissiveFactor":[
                0.04820188736714276,
                0.027720387444746888,
                1
            ],
            "extensions":{
                "KHR_materials_emissive_strength":{
                    "emissiveStrength":4.56120269378988
                }
            },
            "name":"Emissive",
            "pbrMetallicRoughness":{
                "baseColorFactor":[
                    1,
                    0.9545900225639343,
                    0.2697720229625702,
                    1
                ]
            }
        }
    ],
    "meshes":[
        {
            "name":"EmissiveCube",
            "primitives":[
                {
                    "attributes":{
                        "POSITION":0,
                        "NORMAL":1,
                        "TEXCOORD_0":2
                    },
                    "indices":3,
                    "material":0
                },
                {
                    "attributes":{
                        "POSITION":4,
                        "NORMAL":5,
                        "TEXCOORD_0":6
                    },
                    "indices":7,
                    "material":1
                }
            ]
        },
        {
            "name":"Plane",
            "primitives":[
                {
                    "attributes":{
                        "POSITION":8,
                        "NORMAL":9,
                        "TEXCOORD_0":10
                    },
                    "indices":11,
                    "material":0
                }
            ]
        }
    ],
    "accessors":[
        {
            "bufferView":0,
            "componentType":5126,
            "count":20,
            "max":[
                1,
                1,
                1
            ],
            "min":[
                -1,
                -1,
                -1
            ],
            "type":"VEC3"
        },
        {
            "bufferView":1,
            "componentType":5126,
            "count":20,
            "type":"VEC3"
        },
        {
            "bufferView":2,
            "componentType":5126,
            "count":20,
            "type":"VEC2"
        },
        {
            "bufferView":3,
            "componentType":5123,
            "count":30,
            "type":"SCALAR"
        },
        {
            "bufferView":4,
            "componentType":5126,
            "count":4,
            "max":[
                1,
                1,
                1
            ],
            "min":[
                -1,
                -1,
                1
            ],
            "type":"VEC3"
        },
        {
            "bufferView":5,
            "componentType":5126,
            "count":4,
            "type":"VEC3"
        },
        {
            "bufferView":6,
            "componentType":5126,
            "count":4,
            "type":"VEC2"
        },
        {
            "bufferView":7,
            "componentType":5123,
            "count":6,
            "type":"SCALAR"
        },
        {
            "bufferView":8,
            "componentType":5126,
            "count":4,
            "max":[
                1,
                0,
                1
            ],
            "min":[
                -1,
                0,
                -1
            ],
            "type":"VEC3"
        },
        {
            "bufferView":9,
            "componentType":5126,
            "count":4,
            "type":"VEC3"
        },
        {
            "bufferView":10,
            "componentType":5126,
            "count":4,
            "type":"VEC2"
        },
        {
            "bufferView":11,
            "componentType":5123,
            "count":6,
            "type":"SCALAR"
        }
    ],
    "bufferViews":[
        {
            "buffer":0,
            "byteLength":240,
            "byteOffset":0,
            "target":34962
        },
        {
            "buffer":0,
            "byteLength":240,
            "byteOffset":240,
            "target":34962
        },
        {
            "buffer":0,
            "byteLength":160,
            "byteOffset":480,
            "target":34962
        },
        {
            "buffer":0,
            "byteLength":60,
            "byteOffset":640,
            "target":34963
        },
        {
            "buffer":0,
            "byteLength":48,
            "byteOffset":700,
            "target":34962
        },
        {
            "buffer":0,
            "byteLength":48,
            "byteOffset":748,
            "target":34962
        },
        {
            "buffer":0,
            "byteLength":32,
            "byteOffset":796,
            "target":34962
        },
        {
            "buffer":0,
            "byteLength":12,
            "byteOffset":828,
            "target":34963
        },
        {
            "buffer":0,
            "byteLength":48,
            "byteOffset":840,
            "target":34962
        },
        {
            "buffer":0,
            "byteLength":48,
            "byteOffset":888,
            "target":34962
        },
        {
            "buffer":0,
            "byteLength":32,
            "byteOffset":936,
            "target":34962
        },
        {
            "buffer":0,
            "byteLength":12,
            "byteOffset":968,
            "target":34963
        }
    ],
    "buffers":[
        {
            "byteLength":980,
            "uri":"emissiveCube2.bin"
        }
    ]
}
