{
	"asset":{
		"generator":"Khronos glTF Blender I/O v4.0.44",
		"version":"2.0"
	},
	"scene":0,
	"scenes":[
		{
			"name":"Scene",
			"nodes":[
				0
			]
		}
	],
	"nodes":[
		{
			"mesh":0,
			"name":"vase flat"
		}
	],
	"materials":[
		{
			"doubleSided":true,
			"name":"Material.008",
			"pbrMetallicRoughness":{
				"baseColorFactor":[
					0.8480613231658936,
					0.9486780762672424,
					0.8725957870483398,
					1
				],
				"metallicFactor":0.7716535329818726,
				"roughnessFactor":0.29921257495880127
			}
		}
	],
	"meshes":[
		{
			"name":"vase flat mesh",
			"primitives":[
				{
					"attributes":{
						"POSITION":0,
						"NORMAL":1,
						"TEXCOORD_0":2
					},
					"indices":3,
					"material":0
				}
			]
		}
	],
	"accessors":[
		{
			"bufferView":0,
			"componentType":5126,
			"count":5545,
			"max":[
				0.10181699693202972,
				0.40147700905799866,
				0.10181799530982971
			],
			"min":[
				-0.10181699693202972,
				0.0012089955853298306,
				-0.1018180102109909
			],
			"type":"VEC3"
		},
		{
			"bufferView":1,
			"componentType":5126,
			"count":5545,
			"type":"VEC3"
		},
		{
			"bufferView":2,
			"componentType":5126,
			"count":5545,
			"type":"VEC2"
		},
		{
			"bufferView":3,
			"componentType":5123,
			"count":30888,
			"type":"SCALAR"
		}
	],
	"bufferViews":[
		{
			"buffer":0,
			"byteLength":66540,
			"byteOffset":0,
			"target":34962
		},
		{
			"buffer":0,
			"byteLength":66540,
			"byteOffset":66540,
			"target":34962
		},
		{
			"buffer":0,
			"byteLength":44360,
			"byteOffset":133080,
			"target":34962
		},
		{
			"buffer":0,
			"byteLength":61776,
			"byteOffset":177440,
			"target":34963
		}
	],
	"buffers":[
		{
			"byteLength":239216,
			"uri":"flat%20vase.bin"
		}
	]
}
