{
	"asset":{
		"generator":"Khronos glTF Blender I/O v4.0.44",
		"version":"2.0"
	},
	"extensionsUsed":[
		"KHR_materials_specular",
		"KHR_materials_ior"
	],
	"scene":0,
	"scenes":[
		{
			"name":"Scene",
			"nodes":[
				0
			]
		}
	],
	"nodes":[
		{
			"mesh":0,
			"name":"vase smooth"
		}
	],
	"materials":[
		{
			"doubleSided":true,
			"extensions":{
				"KHR_materials_specular":{
					"specularFactor":0
				},
				"KHR_materials_ior":{
					"ior":1.4500000476837158
				}
			},
			"name":"ceramic vase smooth",
			"pbrMetallicRoughness":{
				"baseColorFactor":[
					0.07228399813175201,
					0.07226869463920593,
					0.07226663827896118,
					1
				],
				"metallicFactor":0.9212598204612732,
				"roughnessFactor":0.06299209594726562
			}
		}
	],
	"meshes":[
		{
			"name":"vase smooth mesh",
			"primitives":[
				{
					"attributes":{
						"POSITION":0,
						"NORMAL":1,
						"TEXCOORD_0":2
					},
					"indices":3,
					"material":0
				}
			]
		}
	],
	"accessors":[
		{
			"bufferView":0,
			"componentType":5126,
			"count":5545,
			"max":[
				0.10181699693202972,
				0.40147700905799866,
				0.10181799530982971
			],
			"min":[
				-0.10181699693202972,
				0.0012089955853298306,
				-0.1018180102109909
			],
			"type":"VEC3"
		},
		{
			"bufferView":1,
			"componentType":5126,
			"count":5545,
			"type":"VEC3"
		},
		{
			"bufferView":2,
			"componentType":5126,
			"count":5545,
			"type":"VEC2"
		},
		{
			"bufferView":3,
			"componentType":5123,
			"count":30888,
			"type":"SCALAR"
		}
	],
	"bufferViews":[
		{
			"buffer":0,
			"byteLength":66540,
			"byteOffset":0,
			"target":34962
		},
		{
			"buffer":0,
			"byteLength":66540,
			"byteOffset":66540,
			"target":34962
		},
		{
			"buffer":0,
			"byteLength":44360,
			"byteOffset":133080,
			"target":34962
		},
		{
			"buffer":0,
			"byteLength":61776,
			"byteOffset":177440,
			"target":34963
		}
	],
	"buffers":[
		{
			"byteLength":239216,
			"uri":"smooth%20vase.bin"
		}
	]
}
