{
	"asset":{
		"generator":"Khronos glTF Blender I/O v4.0.44",
		"version":"2.0"
	},
	"scene":0,
	"scenes":[
		{
			"name":"Scene",
			"nodes":[
				0
			]
		}
	],
	"nodes":[
		{
			"mesh":0,
			"name":"Crate"
		}
	],
	"materials":[
		{
			"doubleSided":true,
			"name":"Wood.light",
			"pbrMetallicRoughness":{
				"baseColorFactor":[
					0.20881086587905884,
					0.1272808015346527,
					0.04584386199712753,
					1
				],
				"metallicFactor":0.05511811003088951,
				"roughnessFactor":0.30314958095550537
			}
		},
		{
			"doubleSided":true,
			"name":"Metallic",
			"pbrMetallicRoughness":{
				"baseColorFactor":[
					0.0933535173535347,
					0.12538759410381317,
					0.800774097442627,
					1
				],
				"metallicFactor":0.7007874250411987,
				"roughnessFactor":0.07151037454605103
			}
		}
	],
	"meshes":[
		{
			"name":"Cube",
			"primitives":[
				{
					"attributes":{
						"POSITION":0,
						"NORMAL":1,
						"TEXCOORD_0":2
					},
					"indices":3,
					"material":0
				},
				{
					"attributes":{
						"POSITION":4,
						"NORMAL":5,
						"TEXCOORD_0":6
					},
					"indices":7,
					"material":1
				}
			]
		}
	],
	"accessors":[
		{
			"bufferView":0,
			"componentType":5126,
			"count":1817,
			"max":[
				0.3234120309352875,
				0.646824061870575,
				0.3234120309352875
			],
			"min":[
				-0.3234120309352875,
				0,
				-0.3234120309352875
			],
			"type":"VEC3"
		},
		{
			"bufferView":1,
			"componentType":5126,
			"count":1817,
			"type":"VEC3"
		},
		{
			"bufferView":2,
			"componentType":5126,
			"count":1817,
			"type":"VEC2"
		},
		{
			"bufferView":3,
			"componentType":5123,
			"count":8904,
			"type":"SCALAR"
		},
		{
			"bufferView":4,
			"componentType":5126,
			"count":176,
			"max":[
				0.251506507396698,
				0.5749185085296631,
				0.251506507396698
			],
			"min":[
				-0.251506507396698,
				0.07634765654802322,
				-0.251506507396698
			],
			"type":"VEC3"
		},
		{
			"bufferView":5,
			"componentType":5126,
			"count":176,
			"type":"VEC3"
		},
		{
			"bufferView":6,
			"componentType":5126,
			"count":176,
			"type":"VEC2"
		},
		{
			"bufferView":7,
			"componentType":5123,
			"count":480,
			"type":"SCALAR"
		}
	],
	"bufferViews":[
		{
			"buffer":0,
			"byteLength":21804,
			"byteOffset":0,
			"target":34962
		},
		{
			"buffer":0,
			"byteLength":21804,
			"byteOffset":21804,
			"target":34962
		},
		{
			"buffer":0,
			"byteLength":14536,
			"byteOffset":43608,
			"target":34962
		},
		{
			"buffer":0,
			"byteLength":17808,
			"byteOffset":58144,
			"target":34963
		},
		{
			"buffer":0,
			"byteLength":2112,
			"byteOffset":75952,
			"target":34962
		},
		{
			"buffer":0,
			"byteLength":2112,
			"byteOffset":78064,
			"target":34962
		},
		{
			"buffer":0,
			"byteLength":1408,
			"byteOffset":80176,
			"target":34962
		},
		{
			"buffer":0,
			"byteLength":960,
			"byteOffset":81584,
			"target":34963
		}
	],
	"buffers":[
		{
			"byteLength":82544,
			"uri":"crate.bin"
		}
	]
}
