{
	"asset":{
		"generator":"Khronos glTF Blender I/O v4.0.44",
		"version":"2.0"
	},
	"extensionsUsed":[
		"KHR_lights_punctual"
	],
	"extensionsRequired":[
		"KHR_lights_punctual"
	],
	"extensions":{
		"KHR_lights_punctual":{
			"lights":[
				{
					"color":[
						0.8461663126945496,
						1,
						0.23807832598686218
					],
					"intensity":54351.41306588226,
					"type":"point",
					"range":0.05000000074505806,
					"name":"Light1"
				},
				{
					"color":[
						0.8461663126945496,
						1,
						0.23807832598686218
					],
					"intensity":5435.141306588225,
					"type":"point",
					"range":0.05000000074505806,
					"name":"Light2"
				},
				{
					"color":[
						0.8461663126945496,
						1,
						0.23807832598686218
					],
					"intensity":5435.141306588225,
					"type":"point",
					"range":0.05000000074505806,
					"name":"Light3"
				},
				{
					"color":[
						0.7438431978225708,
						1,
						0.9017847776412964
					],
					"intensity":683,
					"type":"directional",
					"name":"Sun"
				}
			]
		}
	},
	"scene":0,
	"scenes":[
		{
			"name":"Scene",
			"nodes":[
				8,
				9,
				10
			]
		},
		{
			"name":"stuff",
			"nodes":[
				11
			]
		}
	],
	"nodes":[
		{
			"camera":0,
			"name":"CameraTop",
			"rotation":[
				-0.28281787037849426,
				-0.6443144679069519,
				-0.27882057428359985,
				0.6535534858703613
			],
			"translation":[
				-6.729925155639648,
				5.529518127441406,
				-0.03347194194793701
			]
		},
		{
			"mesh":0,
			"name":"left eye",
			"scale":[
				0.169245183467865,
				0.169245183467865,
				0.169245183467865
			],
			"translation":[
				-0.5588871240615845,
				2.0997772216796875,
				0.312122106552124
			]
		},
		{
			"camera":1,
			"name":"Camera",
			"rotation":[
				0.5624865293502808,
				-0.4284960925579071,
				-0.4284960925579071,
				0.5624865293502808
			],
			"scale":[
				10.000000953674316,
				10,
				9.999999046325684
			],
			"translation":[
				-7.929269790649414,
				-3.2631430625915527,
				-1.6206330060958862
			]
		},
		{
			"children":[
				2
			],
			"extensions":{
				"KHR_lights_punctual":{
					"light":0
				}
			},
			"name":"LightModel1",
			"rotation":[
				-0.7071068286895752,
				0,
				0,
				0.7071068286895752
			],
			"translation":[
				0,
				-0.004057407379150391,
				0
			]
		},
		{
			"extensions":{
				"KHR_lights_punctual":{
					"light":1
				}
			},
			"name":"LightModel2",
			"rotation":[
				-0.7071068286895752,
				0,
				0,
				0.7071068286895752
			],
			"translation":[
				0,
				-0.004057407379150391,
				-2.0663530826568604
			]
		},
		{
			"extensions":{
				"KHR_lights_punctual":{
					"light":2
				}
			},
			"name":"LightModel3",
			"rotation":[
				-0.7071068286895752,
				0,
				0,
				0.7071068286895752
			],
			"translation":[
				0,
				-0.004057407379150391,
				2.0404531955718994
			]
		},
		{
			"children":[
				3,
				4,
				5
			],
			"name":"LightsGroup",
			"translation":[
				-0.08125829696655273,
				3.040311336517334,
				-0.03347194194793701
			]
		},
		{
			"mesh":1,
			"name":"right eye",
			"scale":[
				0.169245183467865,
				0.169245183467865,
				0.169245183467865
			],
			"translation":[
				-0.5588871240615845,
				2.0997772216796875,
				-0.3543884754180908
			]
		},
		{
			"children":[
				0,
				1,
				6,
				7
			],
			"mesh":2,
			"name":"Robot",
			"translation":[
				0.08125829696655273,
				3.242704391479492,
				0.03347194194793701
			]
		},
		{
			"extensions":{
				"KHR_lights_punctual":{
					"light":3
				}
			},
			"name":"Sun",
			"rotation":[
				-0.6819965243339539,
				0.1868080347776413,
				0.5621644258499146,
				0.4288993775844574
			],
			"translation":[
				-3.615208625793457,
				3.9587202072143555,
				2.630944013595581
			]
		},
		{
			"name":"BezierCurve",
			"rotation":[
				0.7071068286895752,
				0,
				0,
				0.7071068286895752
			],
			"scale":[
				6.397964000701904,
				6.397964000701904,
				6.397964000701904
			],
			"translation":[
				0.2179960012435913,
				3.9752373695373535,
				-0.7272236347198486
			]
		},
		{
			"mesh":3,
			"name":"scene2cube"
		}
	],
	"cameras":[
		{
			"name":"Camera.001",
			"perspective":{
				"aspectRatio":1.7777777777777777,
				"yfov":0.4578223484558942,
				"zfar":1000,
				"znear":0.10000000149011612
			},
			"type":"perspective"
		},
		{
			"name":"Camera",
			"perspective":{
				"aspectRatio":1.7777777777777777,
				"yfov":0.513038796505747,
				"zfar":500,
				"znear":0.10000000149011612
			},
			"type":"perspective"
		}
	],
	"materials":[
		{
			"doubleSided":true,
			"emissiveFactor":[
				0.7606526613235474,
				0.7990682125091553,
				0.011611615307629108
			],
			"name":"LED",
			"pbrMetallicRoughness":{
				"baseColorFactor":[
					0.762374222278595,
					0.8002911806106567,
					0.011483708396553993,
					1
				],
				"metallicFactor":0,
				"roughnessFactor":0.5
			}
		},
		{
			"doubleSided":true,
			"name":"Metallic",
			"pbrMetallicRoughness":{
				"baseColorFactor":[
					0.0933535173535347,
					0.12538759410381317,
					0.800774097442627,
					1
				],
				"metallicFactor":0.7007874250411987,
				"roughnessFactor":0.07151037454605103
			}
		},
		{
			"doubleSided":true,
			"name":"white",
			"pbrMetallicRoughness":{
				"baseColorFactor":[
					1,
					0.9705504179000854,
					0.9705119132995605,
					1
				],
				"metallicFactor":0,
				"roughnessFactor":0.24409449100494385
			}
		}
	],
	"meshes":[
		{
			"name":"Sphere",
			"primitives":[
				{
					"attributes":{
						"POSITION":0,
						"NORMAL":1,
						"TEXCOORD_0":2,
						"TANGENT":3
					},
					"indices":4,
					"material":0
				}
			]
		},
		{
			"name":"Sphere.001",
			"primitives":[
				{
					"attributes":{
						"POSITION":5,
						"NORMAL":6,
						"TEXCOORD_0":7,
						"TANGENT":8
					},
					"indices":4,
					"material":0
				}
			]
		},
		{
			"name":"Cube",
			"primitives":[
				{
					"attributes":{
						"POSITION":9,
						"NORMAL":10,
						"TEXCOORD_0":11
					},
					"indices":12,
					"material":1
				},
				{
					"attributes":{
						"POSITION":13,
						"NORMAL":14,
						"TEXCOORD_0":15
					},
					"indices":16,
					"material":2
				}
			]
		},
		{
			"name":"scene2CubeMesh",
			"primitives":[
				{
					"attributes":{
						"POSITION":17,
						"NORMAL":18,
						"TEXCOORD_0":19,
						"TANGENT":20
					},
					"indices":21
				}
			]
		}
	],
	"accessors":[
		{
			"bufferView":0,
			"componentType":5126,
			"count":1984,
			"max":[
				0.9999997019767761,
				1,
				0.9999993443489075
			],
			"min":[
				-0.9999990463256836,
				-1,
				-1
			],
			"type":"VEC3"
		},
		{
			"bufferView":1,
			"componentType":5126,
			"count":1984,
			"type":"VEC3"
		},
		{
			"bufferView":2,
			"componentType":5126,
			"count":1984,
			"type":"VEC2"
		},
		{
			"bufferView":3,
			"componentType":5126,
			"count":1984,
			"type":"VEC4"
		},
		{
			"bufferView":4,
			"componentType":5123,
			"count":2880,
			"type":"SCALAR"
		},
		{
			"bufferView":5,
			"componentType":5126,
			"count":1984,
			"max":[
				0.9999997019767761,
				1,
				0.9999993443489075
			],
			"min":[
				-0.9999990463256836,
				-1,
				-1
			],
			"type":"VEC3"
		},
		{
			"bufferView":6,
			"componentType":5126,
			"count":1984,
			"type":"VEC3"
		},
		{
			"bufferView":7,
			"componentType":5126,
			"count":1984,
			"type":"VEC2"
		},
		{
			"bufferView":8,
			"componentType":5126,
			"count":1984,
			"type":"VEC4"
		},
		{
			"bufferView":9,
			"componentType":5126,
			"count":1157,
			"max":[
				1,
				2.40519642829895,
				3
			],
			"min":[
				-1,
				-3.2405846118927,
				-3
			],
			"type":"VEC3"
		},
		{
			"bufferView":10,
			"componentType":5126,
			"count":1157,
			"type":"VEC3"
		},
		{
			"bufferView":11,
			"componentType":5126,
			"count":1157,
			"type":"VEC2"
		},
		{
			"bufferView":12,
			"componentType":5123,
			"count":2592,
			"type":"SCALAR"
		},
		{
			"bufferView":13,
			"componentType":5126,
			"count":42,
			"max":[
				0.6410335898399353,
				2.40519642829895,
				0.5410336256027222
			],
			"min":[
				-0.5410336256027222,
				2.305196523666382,
				-0.5432488322257996
			],
			"type":"VEC3"
		},
		{
			"bufferView":14,
			"componentType":5126,
			"count":42,
			"type":"VEC3"
		},
		{
			"bufferView":15,
			"componentType":5126,
			"count":42,
			"type":"VEC2"
		},
		{
			"bufferView":16,
			"componentType":5123,
			"count":120,
			"type":"SCALAR"
		},
		{
			"bufferView":17,
			"componentType":5126,
			"count":24,
			"max":[
				1,
				1,
				1
			],
			"min":[
				-1,
				-1,
				-1
			],
			"type":"VEC3"
		},
		{
			"bufferView":18,
			"componentType":5126,
			"count":24,
			"type":"VEC3"
		},
		{
			"bufferView":19,
			"componentType":5126,
			"count":24,
			"type":"VEC2"
		},
		{
			"bufferView":20,
			"componentType":5126,
			"count":24,
			"type":"VEC4"
		},
		{
			"bufferView":21,
			"componentType":5123,
			"count":36,
			"type":"SCALAR"
		}
	],
	"bufferViews":[
		{
			"buffer":0,
			"byteLength":23808,
			"byteOffset":0,
			"target":34962
		},
		{
			"buffer":0,
			"byteLength":23808,
			"byteOffset":23808,
			"target":34962
		},
		{
			"buffer":0,
			"byteLength":15872,
			"byteOffset":47616,
			"target":34962
		},
		{
			"buffer":0,
			"byteLength":31744,
			"byteOffset":63488,
			"target":34962
		},
		{
			"buffer":0,
			"byteLength":5760,
			"byteOffset":95232,
			"target":34963
		},
		{
			"buffer":0,
			"byteLength":23808,
			"byteOffset":100992,
			"target":34962
		},
		{
			"buffer":0,
			"byteLength":23808,
			"byteOffset":124800,
			"target":34962
		},
		{
			"buffer":0,
			"byteLength":15872,
			"byteOffset":148608,
			"target":34962
		},
		{
			"buffer":0,
			"byteLength":31744,
			"byteOffset":164480,
			"target":34962
		},
		{
			"buffer":0,
			"byteLength":13884,
			"byteOffset":196224,
			"target":34962
		},
		{
			"buffer":0,
			"byteLength":13884,
			"byteOffset":210108,
			"target":34962
		},
		{
			"buffer":0,
			"byteLength":9256,
			"byteOffset":223992,
			"target":34962
		},
		{
			"buffer":0,
			"byteLength":5184,
			"byteOffset":233248,
			"target":34963
		},
		{
			"buffer":0,
			"byteLength":504,
			"byteOffset":238432,
			"target":34962
		},
		{
			"buffer":0,
			"byteLength":504,
			"byteOffset":238936,
			"target":34962
		},
		{
			"buffer":0,
			"byteLength":336,
			"byteOffset":239440,
			"target":34962
		},
		{
			"buffer":0,
			"byteLength":240,
			"byteOffset":239776,
			"target":34963
		},
		{
			"buffer":0,
			"byteLength":288,
			"byteOffset":240016,
			"target":34962
		},
		{
			"buffer":0,
			"byteLength":288,
			"byteOffset":240304,
			"target":34962
		},
		{
			"buffer":0,
			"byteLength":192,
			"byteOffset":240592,
			"target":34962
		},
		{
			"buffer":0,
			"byteLength":384,
			"byteOffset":240784,
			"target":34962
		},
		{
			"buffer":0,
			"byteLength":72,
			"byteOffset":241168,
			"target":34963
		}
	],
	"buffers":[
		{
			"byteLength":241240,
			"uri":"lights.bin"
		}
	]
}
