{
    "asset":{
        "generator":"Khronos glTF Blender I/O v4.0.44",
        "version":"2.0"
    },
    "scene":0,
    "scenes":[
        {
            "name":"Scene",
            "nodes":[
                0
            ]
        }
    ],
    "nodes":[
        {
            "mesh":0,
            "name":"monkey",
            "rotation":[
                0.70710688829422,
                0,
                0,
                0.7071066498756409
            ]
        }
    ],
    "materials":[
        {
            "doubleSided":true,
            "name":"Material material",
            "pbrMetallicRoughness":{
                "baseColorTexture":{
                    "index":0
                },
                "metallicFactor":0,
                "roughnessFactor":0.5
            }
        }
    ],
    "meshes":[
        {
            "name":"monkey mesh",
            "primitives":[
                {
                    "attributes":{
                        "POSITION":0,
                        "NORMAL":1,
                        "TEXCOORD_0":2
                    },
                    "indices":3,
                    "material":0
                }
            ]
        }
    ],
    "textures":[
        {
            "sampler":0,
            "source":0
        }
    ],
    "images":[
        {
            "mimeType":"image/png",
            "name":"1_1",
            "uri":"1_1.png"
        }
    ],
    "accessors":[
        {
            "bufferView":0,
            "componentType":5126,
            "count":5756,
            "max":[
                0.8001570105552673,
                0.4466939866542816,
                -0.004894999787211418
            ],
            "min":[
                -0.8001570105552673,
                -0.28803300857543945,
                -1.0084220170974731
            ],
            "type":"VEC3"
        },
        {
            "bufferView":1,
            "componentType":5126,
            "count":5756,
            "type":"VEC3"
        },
        {
            "bufferView":2,
            "componentType":5126,
            "count":5756,
            "type":"VEC2"
        },
        {
            "bufferView":3,
            "componentType":5123,
            "count":26898,
            "type":"SCALAR"
        }
    ],
    "bufferViews":[
        {
            "buffer":0,
            "byteLength":69072,
            "byteOffset":0,
            "target":34962
        },
        {
            "buffer":0,
            "byteLength":69072,
            "byteOffset":69072,
            "target":34962
        },
        {
            "buffer":0,
            "byteLength":46048,
            "byteOffset":138144,
            "target":34962
        },
        {
            "buffer":0,
            "byteLength":53796,
            "byteOffset":184192,
            "target":34963
        }
    ],
    "samplers":[
        {
            "magFilter":9729,
            "minFilter":9987
        }
    ],
    "buffers":[
        {
            "byteLength":237988,
            "uri":"monkey01.bin"
        }
    ]
}
