{
	"asset":{
		"generator":"Khronos glTF Blender I/O v4.0.44",
		"version":"2.0"
	},
	"scene":0,
	"scenes":[
		{
			"name":"Scene",
			"nodes":[
				0,
				1,
				2,
				3,
				4,
				5,
				6,
				7,
				8,
				9,
				10,
				11,
				12,
				13,
				14
			]
		}
	],
	"nodes":[
		{
			"mesh":0,
			"name":"Plane",
			"scale":[
				36,
				0.10000000149011612,
				36
			]
		},
		{
			"mesh":1,
			"name":"stripe.072",
			"scale":[
				1.5,
				0.15000000596046448,
				0.019999999552965164
			],
			"translation":[
				0,
				0.010357141494750977,
				0
			]
		},
		{
			"mesh":2,
			"name":"stripe.001",
			"scale":[
				1.5,
				0.15000000596046448,
				0.019999999552965164
			],
			"translation":[
				0,
				0.010357141494750977,
				-0.5
			]
		},
		{
			"mesh":3,
			"name":"stripe.002",
			"scale":[
				1.5,
				0.15000000596046448,
				0.019999999552965164
			],
			"translation":[
				0,
				0.010357141494750977,
				-1
			]
		},
		{
			"mesh":4,
			"name":"stripe.003",
			"scale":[
				1.5,
				0.15000000596046448,
				0.019999999552965164
			],
			"translation":[
				0,
				0.010357141494750977,
				-1.5
			]
		},
		{
			"mesh":5,
			"name":"stripe.004",
			"scale":[
				1.5,
				0.15000000596046448,
				0.019999999552965164
			],
			"translation":[
				0,
				0.010357141494750977,
				1.5
			]
		},
		{
			"mesh":6,
			"name":"stripe.005",
			"scale":[
				1.5,
				0.15000000596046448,
				0.019999999552965164
			],
			"translation":[
				0,
				0.010357141494750977,
				1
			]
		},
		{
			"mesh":7,
			"name":"stripe.006",
			"scale":[
				1.5,
				0.15000000596046448,
				0.019999999552965164
			],
			"translation":[
				0,
				0.010357141494750977,
				0.5
			]
		},
		{
			"mesh":8,
			"name":"stripe.007",
			"rotation":[
				0,
				0.7071068286895752,
				0,
				0.7071068286895752
			],
			"scale":[
				1.5,
				0.15000000596046448,
				0.019999999552965164
			],
			"translation":[
				0,
				0.010357141494750977,
				0
			]
		},
		{
			"mesh":9,
			"name":"stripe.008",
			"rotation":[
				0,
				0.7071068286895752,
				0,
				0.7071068286895752
			],
			"scale":[
				1.5,
				0.15000000596046448,
				0.019999999552965164
			],
			"translation":[
				-0.5,
				0.010357141494750977,
				0
			]
		},
		{
			"mesh":10,
			"name":"stripe.009",
			"rotation":[
				0,
				0.7071068286895752,
				0,
				0.7071068286895752
			],
			"scale":[
				1.5,
				0.15000000596046448,
				0.019999999552965164
			],
			"translation":[
				-1,
				0.010357141494750977,
				0
			]
		},
		{
			"mesh":11,
			"name":"stripe.010",
			"rotation":[
				0,
				0.7071068286895752,
				0,
				0.7071068286895752
			],
			"scale":[
				1.5,
				0.15000000596046448,
				0.019999999552965164
			],
			"translation":[
				-1.5,
				0.010357141494750977,
				0
			]
		},
		{
			"mesh":12,
			"name":"stripe.011",
			"rotation":[
				0,
				0.7071068286895752,
				0,
				0.7071068286895752
			],
			"scale":[
				1.5,
				0.15000000596046448,
				0.019999999552965164
			],
			"translation":[
				1.5,
				0.010357141494750977,
				0
			]
		},
		{
			"mesh":13,
			"name":"stripe.012",
			"rotation":[
				0,
				0.7071068286895752,
				0,
				0.7071068286895752
			],
			"scale":[
				1.5,
				0.15000000596046448,
				0.019999999552965164
			],
			"translation":[
				1,
				0.010357141494750977,
				0
			]
		},
		{
			"mesh":14,
			"name":"stripe.013",
			"rotation":[
				0,
				0.7071068286895752,
				0,
				0.7071068286895752
			],
			"scale":[
				1.5,
				0.15000000596046448,
				0.019999999552965164
			],
			"translation":[
				0.5,
				0.015357142314314842,
				0
			]
		}
	],
	"materials":[
		{
			"doubleSided":true,
			"name":"white material",
			"pbrMetallicRoughness":{
				"baseColorFactor":[
					0.800000011920929,
					0.800000011920929,
					0.800000011920929,
					1
				],
				"metallicFactor":0,
				"roughnessFactor":0.5
			}
		},
		{
			"doubleSided":true,
			"name":"Material",
			"pbrMetallicRoughness":{
				"baseColorFactor":[
					0.19859546422958374,
					0.19859546422958374,
					0.19859546422958374,
					1
				],
				"metallicFactor":0.07526881992816925,
				"roughnessFactor":0.5
			}
		}
	],
	"meshes":[
		{
			"name":"Plane mesh",
			"primitives":[
				{
					"attributes":{
						"POSITION":0,
						"NORMAL":1,
						"TEXCOORD_0":2,
						"TANGENT":3
					},
					"indices":4,
					"material":0
				}
			]
		},
		{
			"name":"stripe mesh.072",
			"primitives":[
				{
					"attributes":{
						"POSITION":5,
						"NORMAL":6,
						"TEXCOORD_0":7,
						"TANGENT":8
					},
					"indices":4,
					"material":1
				}
			]
		},
		{
			"name":"stripe mesh.128",
			"primitives":[
				{
					"attributes":{
						"POSITION":9,
						"NORMAL":10,
						"TEXCOORD_0":11,
						"TANGENT":12
					},
					"indices":4,
					"material":1
				}
			]
		},
		{
			"name":"stripe mesh.129",
			"primitives":[
				{
					"attributes":{
						"POSITION":13,
						"NORMAL":14,
						"TEXCOORD_0":15,
						"TANGENT":16
					},
					"indices":4,
					"material":1
				}
			]
		},
		{
			"name":"stripe mesh.130",
			"primitives":[
				{
					"attributes":{
						"POSITION":17,
						"NORMAL":18,
						"TEXCOORD_0":19,
						"TANGENT":20
					},
					"indices":4,
					"material":1
				}
			]
		},
		{
			"name":"stripe mesh.131",
			"primitives":[
				{
					"attributes":{
						"POSITION":21,
						"NORMAL":22,
						"TEXCOORD_0":23,
						"TANGENT":24
					},
					"indices":4,
					"material":1
				}
			]
		},
		{
			"name":"stripe mesh.132",
			"primitives":[
				{
					"attributes":{
						"POSITION":25,
						"NORMAL":26,
						"TEXCOORD_0":27,
						"TANGENT":28
					},
					"indices":4,
					"material":1
				}
			]
		},
		{
			"name":"stripe mesh.133",
			"primitives":[
				{
					"attributes":{
						"POSITION":29,
						"NORMAL":30,
						"TEXCOORD_0":31,
						"TANGENT":32
					},
					"indices":4,
					"material":1
				}
			]
		},
		{
			"name":"stripe mesh.134",
			"primitives":[
				{
					"attributes":{
						"POSITION":33,
						"NORMAL":34,
						"TEXCOORD_0":35,
						"TANGENT":36
					},
					"indices":4,
					"material":1
				}
			]
		},
		{
			"name":"stripe mesh.135",
			"primitives":[
				{
					"attributes":{
						"POSITION":37,
						"NORMAL":38,
						"TEXCOORD_0":39,
						"TANGENT":40
					},
					"indices":4,
					"material":1
				}
			]
		},
		{
			"name":"stripe mesh.136",
			"primitives":[
				{
					"attributes":{
						"POSITION":41,
						"NORMAL":42,
						"TEXCOORD_0":43,
						"TANGENT":44
					},
					"indices":4,
					"material":1
				}
			]
		},
		{
			"name":"stripe mesh.137",
			"primitives":[
				{
					"attributes":{
						"POSITION":45,
						"NORMAL":46,
						"TEXCOORD_0":47,
						"TANGENT":48
					},
					"indices":4,
					"material":1
				}
			]
		},
		{
			"name":"stripe mesh.138",
			"primitives":[
				{
					"attributes":{
						"POSITION":49,
						"NORMAL":50,
						"TEXCOORD_0":51,
						"TANGENT":52
					},
					"indices":4,
					"material":1
				}
			]
		},
		{
			"name":"stripe mesh.139",
			"primitives":[
				{
					"attributes":{
						"POSITION":53,
						"NORMAL":54,
						"TEXCOORD_0":55,
						"TANGENT":56
					},
					"indices":4,
					"material":1
				}
			]
		},
		{
			"name":"stripe mesh.140",
			"primitives":[
				{
					"attributes":{
						"POSITION":57,
						"NORMAL":58,
						"TEXCOORD_0":59,
						"TANGENT":60
					},
					"indices":4,
					"material":1
				}
			]
		}
	],
	"accessors":[
		{
			"bufferView":0,
			"componentType":5126,
			"count":4,
			"max":[
				1,
				0,
				1
			],
			"min":[
				-1,
				0,
				-1
			],
			"type":"VEC3"
		},
		{
			"bufferView":1,
			"componentType":5126,
			"count":4,
			"type":"VEC3"
		},
		{
			"bufferView":2,
			"componentType":5126,
			"count":4,
			"type":"VEC2"
		},
		{
			"bufferView":3,
			"componentType":5126,
			"count":4,
			"type":"VEC4"
		},
		{
			"bufferView":4,
			"componentType":5123,
			"count":6,
			"type":"SCALAR"
		},
		{
			"bufferView":5,
			"componentType":5126,
			"count":4,
			"max":[
				1,
				0,
				1
			],
			"min":[
				-1,
				0,
				-1
			],
			"type":"VEC3"
		},
		{
			"bufferView":6,
			"componentType":5126,
			"count":4,
			"type":"VEC3"
		},
		{
			"bufferView":7,
			"componentType":5126,
			"count":4,
			"type":"VEC2"
		},
		{
			"bufferView":8,
			"componentType":5126,
			"count":4,
			"type":"VEC4"
		},
		{
			"bufferView":9,
			"componentType":5126,
			"count":4,
			"max":[
				1,
				0,
				1
			],
			"min":[
				-1,
				0,
				-1
			],
			"type":"VEC3"
		},
		{
			"bufferView":10,
			"componentType":5126,
			"count":4,
			"type":"VEC3"
		},
		{
			"bufferView":11,
			"componentType":5126,
			"count":4,
			"type":"VEC2"
		},
		{
			"bufferView":12,
			"componentType":5126,
			"count":4,
			"type":"VEC4"
		},
		{
			"bufferView":13,
			"componentType":5126,
			"count":4,
			"max":[
				1,
				0,
				1
			],
			"min":[
				-1,
				0,
				-1
			],
			"type":"VEC3"
		},
		{
			"bufferView":14,
			"componentType":5126,
			"count":4,
			"type":"VEC3"
		},
		{
			"bufferView":15,
			"componentType":5126,
			"count":4,
			"type":"VEC2"
		},
		{
			"bufferView":16,
			"componentType":5126,
			"count":4,
			"type":"VEC4"
		},
		{
			"bufferView":17,
			"componentType":5126,
			"count":4,
			"max":[
				1,
				0,
				1
			],
			"min":[
				-1,
				0,
				-1
			],
			"type":"VEC3"
		},
		{
			"bufferView":18,
			"componentType":5126,
			"count":4,
			"type":"VEC3"
		},
		{
			"bufferView":19,
			"componentType":5126,
			"count":4,
			"type":"VEC2"
		},
		{
			"bufferView":20,
			"componentType":5126,
			"count":4,
			"type":"VEC4"
		},
		{
			"bufferView":21,
			"componentType":5126,
			"count":4,
			"max":[
				1,
				0,
				1
			],
			"min":[
				-1,
				0,
				-1
			],
			"type":"VEC3"
		},
		{
			"bufferView":22,
			"componentType":5126,
			"count":4,
			"type":"VEC3"
		},
		{
			"bufferView":23,
			"componentType":5126,
			"count":4,
			"type":"VEC2"
		},
		{
			"bufferView":24,
			"componentType":5126,
			"count":4,
			"type":"VEC4"
		},
		{
			"bufferView":25,
			"componentType":5126,
			"count":4,
			"max":[
				1,
				0,
				1
			],
			"min":[
				-1,
				0,
				-1
			],
			"type":"VEC3"
		},
		{
			"bufferView":26,
			"componentType":5126,
			"count":4,
			"type":"VEC3"
		},
		{
			"bufferView":27,
			"componentType":5126,
			"count":4,
			"type":"VEC2"
		},
		{
			"bufferView":28,
			"componentType":5126,
			"count":4,
			"type":"VEC4"
		},
		{
			"bufferView":29,
			"componentType":5126,
			"count":4,
			"max":[
				1,
				0,
				1
			],
			"min":[
				-1,
				0,
				-1
			],
			"type":"VEC3"
		},
		{
			"bufferView":30,
			"componentType":5126,
			"count":4,
			"type":"VEC3"
		},
		{
			"bufferView":31,
			"componentType":5126,
			"count":4,
			"type":"VEC2"
		},
		{
			"bufferView":32,
			"componentType":5126,
			"count":4,
			"type":"VEC4"
		},
		{
			"bufferView":33,
			"componentType":5126,
			"count":4,
			"max":[
				1,
				0,
				1
			],
			"min":[
				-1,
				0,
				-1
			],
			"type":"VEC3"
		},
		{
			"bufferView":34,
			"componentType":5126,
			"count":4,
			"type":"VEC3"
		},
		{
			"bufferView":35,
			"componentType":5126,
			"count":4,
			"type":"VEC2"
		},
		{
			"bufferView":36,
			"componentType":5126,
			"count":4,
			"type":"VEC4"
		},
		{
			"bufferView":37,
			"componentType":5126,
			"count":4,
			"max":[
				1,
				0,
				1
			],
			"min":[
				-1,
				0,
				-1
			],
			"type":"VEC3"
		},
		{
			"bufferView":38,
			"componentType":5126,
			"count":4,
			"type":"VEC3"
		},
		{
			"bufferView":39,
			"componentType":5126,
			"count":4,
			"type":"VEC2"
		},
		{
			"bufferView":40,
			"componentType":5126,
			"count":4,
			"type":"VEC4"
		},
		{
			"bufferView":41,
			"componentType":5126,
			"count":4,
			"max":[
				1,
				0,
				1
			],
			"min":[
				-1,
				0,
				-1
			],
			"type":"VEC3"
		},
		{
			"bufferView":42,
			"componentType":5126,
			"count":4,
			"type":"VEC3"
		},
		{
			"bufferView":43,
			"componentType":5126,
			"count":4,
			"type":"VEC2"
		},
		{
			"bufferView":44,
			"componentType":5126,
			"count":4,
			"type":"VEC4"
		},
		{
			"bufferView":45,
			"componentType":5126,
			"count":4,
			"max":[
				1,
				0,
				1
			],
			"min":[
				-1,
				0,
				-1
			],
			"type":"VEC3"
		},
		{
			"bufferView":46,
			"componentType":5126,
			"count":4,
			"type":"VEC3"
		},
		{
			"bufferView":47,
			"componentType":5126,
			"count":4,
			"type":"VEC2"
		},
		{
			"bufferView":48,
			"componentType":5126,
			"count":4,
			"type":"VEC4"
		},
		{
			"bufferView":49,
			"componentType":5126,
			"count":4,
			"max":[
				1,
				0,
				1
			],
			"min":[
				-1,
				0,
				-1
			],
			"type":"VEC3"
		},
		{
			"bufferView":50,
			"componentType":5126,
			"count":4,
			"type":"VEC3"
		},
		{
			"bufferView":51,
			"componentType":5126,
			"count":4,
			"type":"VEC2"
		},
		{
			"bufferView":52,
			"componentType":5126,
			"count":4,
			"type":"VEC4"
		},
		{
			"bufferView":53,
			"componentType":5126,
			"count":4,
			"max":[
				1,
				0,
				1
			],
			"min":[
				-1,
				0,
				-1
			],
			"type":"VEC3"
		},
		{
			"bufferView":54,
			"componentType":5126,
			"count":4,
			"type":"VEC3"
		},
		{
			"bufferView":55,
			"componentType":5126,
			"count":4,
			"type":"VEC2"
		},
		{
			"bufferView":56,
			"componentType":5126,
			"count":4,
			"type":"VEC4"
		},
		{
			"bufferView":57,
			"componentType":5126,
			"count":4,
			"max":[
				1,
				0,
				1
			],
			"min":[
				-1,
				0,
				-1
			],
			"type":"VEC3"
		},
		{
			"bufferView":58,
			"componentType":5126,
			"count":4,
			"type":"VEC3"
		},
		{
			"bufferView":59,
			"componentType":5126,
			"count":4,
			"type":"VEC2"
		},
		{
			"bufferView":60,
			"componentType":5126,
			"count":4,
			"type":"VEC4"
		}
	],
	"bufferViews":[
		{
			"buffer":0,
			"byteLength":48,
			"byteOffset":0,
			"target":34962
		},
		{
			"buffer":0,
			"byteLength":48,
			"byteOffset":48,
			"target":34962
		},
		{
			"buffer":0,
			"byteLength":32,
			"byteOffset":96,
			"target":34962
		},
		{
			"buffer":0,
			"byteLength":64,
			"byteOffset":128,
			"target":34962
		},
		{
			"buffer":0,
			"byteLength":12,
			"byteOffset":192,
			"target":34963
		},
		{
			"buffer":0,
			"byteLength":48,
			"byteOffset":204,
			"target":34962
		},
		{
			"buffer":0,
			"byteLength":48,
			"byteOffset":252,
			"target":34962
		},
		{
			"buffer":0,
			"byteLength":32,
			"byteOffset":300,
			"target":34962
		},
		{
			"buffer":0,
			"byteLength":64,
			"byteOffset":332,
			"target":34962
		},
		{
			"buffer":0,
			"byteLength":48,
			"byteOffset":396,
			"target":34962
		},
		{
			"buffer":0,
			"byteLength":48,
			"byteOffset":444,
			"target":34962
		},
		{
			"buffer":0,
			"byteLength":32,
			"byteOffset":492,
			"target":34962
		},
		{
			"buffer":0,
			"byteLength":64,
			"byteOffset":524,
			"target":34962
		},
		{
			"buffer":0,
			"byteLength":48,
			"byteOffset":588,
			"target":34962
		},
		{
			"buffer":0,
			"byteLength":48,
			"byteOffset":636,
			"target":34962
		},
		{
			"buffer":0,
			"byteLength":32,
			"byteOffset":684,
			"target":34962
		},
		{
			"buffer":0,
			"byteLength":64,
			"byteOffset":716,
			"target":34962
		},
		{
			"buffer":0,
			"byteLength":48,
			"byteOffset":780,
			"target":34962
		},
		{
			"buffer":0,
			"byteLength":48,
			"byteOffset":828,
			"target":34962
		},
		{
			"buffer":0,
			"byteLength":32,
			"byteOffset":876,
			"target":34962
		},
		{
			"buffer":0,
			"byteLength":64,
			"byteOffset":908,
			"target":34962
		},
		{
			"buffer":0,
			"byteLength":48,
			"byteOffset":972,
			"target":34962
		},
		{
			"buffer":0,
			"byteLength":48,
			"byteOffset":1020,
			"target":34962
		},
		{
			"buffer":0,
			"byteLength":32,
			"byteOffset":1068,
			"target":34962
		},
		{
			"buffer":0,
			"byteLength":64,
			"byteOffset":1100,
			"target":34962
		},
		{
			"buffer":0,
			"byteLength":48,
			"byteOffset":1164,
			"target":34962
		},
		{
			"buffer":0,
			"byteLength":48,
			"byteOffset":1212,
			"target":34962
		},
		{
			"buffer":0,
			"byteLength":32,
			"byteOffset":1260,
			"target":34962
		},
		{
			"buffer":0,
			"byteLength":64,
			"byteOffset":1292,
			"target":34962
		},
		{
			"buffer":0,
			"byteLength":48,
			"byteOffset":1356,
			"target":34962
		},
		{
			"buffer":0,
			"byteLength":48,
			"byteOffset":1404,
			"target":34962
		},
		{
			"buffer":0,
			"byteLength":32,
			"byteOffset":1452,
			"target":34962
		},
		{
			"buffer":0,
			"byteLength":64,
			"byteOffset":1484,
			"target":34962
		},
		{
			"buffer":0,
			"byteLength":48,
			"byteOffset":1548,
			"target":34962
		},
		{
			"buffer":0,
			"byteLength":48,
			"byteOffset":1596,
			"target":34962
		},
		{
			"buffer":0,
			"byteLength":32,
			"byteOffset":1644,
			"target":34962
		},
		{
			"buffer":0,
			"byteLength":64,
			"byteOffset":1676,
			"target":34962
		},
		{
			"buffer":0,
			"byteLength":48,
			"byteOffset":1740,
			"target":34962
		},
		{
			"buffer":0,
			"byteLength":48,
			"byteOffset":1788,
			"target":34962
		},
		{
			"buffer":0,
			"byteLength":32,
			"byteOffset":1836,
			"target":34962
		},
		{
			"buffer":0,
			"byteLength":64,
			"byteOffset":1868,
			"target":34962
		},
		{
			"buffer":0,
			"byteLength":48,
			"byteOffset":1932,
			"target":34962
		},
		{
			"buffer":0,
			"byteLength":48,
			"byteOffset":1980,
			"target":34962
		},
		{
			"buffer":0,
			"byteLength":32,
			"byteOffset":2028,
			"target":34962
		},
		{
			"buffer":0,
			"byteLength":64,
			"byteOffset":2060,
			"target":34962
		},
		{
			"buffer":0,
			"byteLength":48,
			"byteOffset":2124,
			"target":34962
		},
		{
			"buffer":0,
			"byteLength":48,
			"byteOffset":2172,
			"target":34962
		},
		{
			"buffer":0,
			"byteLength":32,
			"byteOffset":2220,
			"target":34962
		},
		{
			"buffer":0,
			"byteLength":64,
			"byteOffset":2252,
			"target":34962
		},
		{
			"buffer":0,
			"byteLength":48,
			"byteOffset":2316,
			"target":34962
		},
		{
			"buffer":0,
			"byteLength":48,
			"byteOffset":2364,
			"target":34962
		},
		{
			"buffer":0,
			"byteLength":32,
			"byteOffset":2412,
			"target":34962
		},
		{
			"buffer":0,
			"byteLength":64,
			"byteOffset":2444,
			"target":34962
		},
		{
			"buffer":0,
			"byteLength":48,
			"byteOffset":2508,
			"target":34962
		},
		{
			"buffer":0,
			"byteLength":48,
			"byteOffset":2556,
			"target":34962
		},
		{
			"buffer":0,
			"byteLength":32,
			"byteOffset":2604,
			"target":34962
		},
		{
			"buffer":0,
			"byteLength":64,
			"byteOffset":2636,
			"target":34962
		},
		{
			"buffer":0,
			"byteLength":48,
			"byteOffset":2700,
			"target":34962
		},
		{
			"buffer":0,
			"byteLength":48,
			"byteOffset":2748,
			"target":34962
		},
		{
			"buffer":0,
			"byteLength":32,
			"byteOffset":2796,
			"target":34962
		},
		{
			"buffer":0,
			"byteLength":64,
			"byteOffset":2828,
			"target":34962
		}
	],
	"buffers":[
		{
			"byteLength":2892,
			"uri":"whitePlane.bin"
		}
	]
}
