{
	"asset":{
		"generator":"Khronos glTF Blender I/O v4.0.44",
		"version":"2.0"
	},
	"scene":0,
	"scenes":[
		{
			"name":"Scene",
			"nodes":[
				0,
				1,
				2,
				3,
				4,
				5,
				6,
				7,
				8,
				9,
				10,
				11,
				12,
				13
			]
		}
	],
	"nodes":[
		{
			"mesh":0,
			"name":"Cube",
			"scale":[
				0.10000000149011612,
				0.10000000149011612,
				0.10000000149011612
			],
			"translation":[
				0,
				1.0940736532211304,
				0
			]
		},
		{
			"mesh":1,
			"name":"BarramundiFish",
			"rotation":[
				0,
				0.6427876949310303,
				0,
				0.7660444378852844
			],
			"translation":[
				0,
				0.11880435794591904,
				0
			]
		},
		{
			"mesh":2,
			"name":"Cone0",
			"rotation":[
				0,
				0,
				-0.3826834559440613,
				0.9238795638084412
			],
			"scale":[
				0.10000000149011612,
				0.10000000149011612,
				0.10000000149011612
			],
			"translation":[
				0,
				0.8132004737854004,
				0
			]
		},
		{
			"mesh":3,
			"name":"Icosphere",
			"scale":[
				0.10000000149011612,
				0.10000000149011612,
				0.10000000149011612
			],
			"translation":[
				0.7327308058738708,
				0.6598451137542725,
				0
			]
		},
		{
			"mesh":4,
			"name":"Cone1",
			"rotation":[
				0.3826834559440613,
				0,
				0,
				0.9238795638084412
			],
			"scale":[
				0.10000000149011612,
				0.10000000149011612,
				0.10000000149011612
			],
			"translation":[
				0.7385062575340271,
				0.24376019835472107,
				0.6466770768165588
			]
		},
		{
			"mesh":5,
			"name":"Cone2",
			"rotation":[
				-0.3826834559440613,
				0,
				0,
				0.9238795638084412
			],
			"scale":[
				0.10000000149011612,
				0.10000000149011612,
				0.10000000149011612
			],
			"translation":[
				0.7385062575340271,
				0.24376019835472107,
				-0.44442886114120483
			]
		},
		{
			"mesh":6,
			"name":"Cone4",
			"rotation":[
				0.9238795638084412,
				0,
				0,
				0.3826834559440613
			],
			"scale":[
				0.10000000149011612,
				0.10000000149011612,
				0.10000000149011612
			],
			"translation":[
				0.7385062575340271,
				1.1469645500183105,
				-0.44442886114120483
			]
		},
		{
			"mesh":7,
			"name":"Cone3",
			"rotation":[
				-0.9238795638084412,
				0,
				0,
				0.3826834559440613
			],
			"scale":[
				0.10000000149011612,
				0.10000000149011612,
				0.10000000149011612
			],
			"translation":[
				0.7385062575340271,
				1.1469645500183105,
				0.6466770768165588
			]
		},
		{
			"mesh":8,
			"name":"Cone9",
			"rotation":[
				0.3535533845424652,
				0.3535533845424652,
				-0.8535534143447876,
				0.1464466005563736
			],
			"scale":[
				0.10000000149011612,
				0.10000000149011612,
				0.10000000149011612
			],
			"translation":[
				-0.9504551291465759,
				1.1469645500183105,
				-0.44442886114120483
			]
		},
		{
			"mesh":9,
			"name":"Cone8",
			"rotation":[
				-0.3535533845424652,
				-0.3535533845424652,
				-0.8535534143447876,
				0.1464466005563736
			],
			"scale":[
				0.10000000149011612,
				0.10000000149011612,
				0.10000000149011612
			],
			"translation":[
				-0.9504551291465759,
				1.1469645500183105,
				0.6466770768165588
			]
		},
		{
			"mesh":10,
			"name":"Cone7",
			"rotation":[
				-0.3535533845424652,
				-0.3535533845424652,
				-0.1464466005563736,
				0.8535534143447876
			],
			"scale":[
				0.10000000149011612,
				0.10000000149011612,
				0.10000000149011612
			],
			"translation":[
				-0.9504551291465759,
				0.24376019835472107,
				-0.44442886114120483
			]
		},
		{
			"mesh":11,
			"name":"Cone5",
			"rotation":[
				0.3535533845424652,
				0.3535533845424652,
				-0.1464466005563736,
				0.8535534143447876
			],
			"scale":[
				0.10000000149011612,
				0.10000000149011612,
				0.10000000149011612
			],
			"translation":[
				-0.9504551291465759,
				0.24376019835472107,
				0.6466770768165588
			]
		},
		{
			"mesh":12,
			"name":"Sphere",
			"scale":[
				-0.09145069122314453,
				-0.09145069122314453,
				-0.09145069122314453
			],
			"translation":[
				-0.8833502531051636,
				0.6504851579666138,
				-0.004163581877946854
			]
		},
		{
			"mesh":13,
			"name":"Sphere2",
			"scale":[
				-0.09145069122314453,
				-0.09145069122314453,
				-0.09145069122314453
			],
			"translation":[
				-1.1628706455230713,
				0.6504851579666138,
				-0.004163581877946854
			]
		}
	],
	"materials":[
		{
			"doubleSided":true,
			"name":"Material.001",
			"pbrMetallicRoughness":{
				"baseColorTexture":{
					"index":0
				},
				"metallicFactor":0,
				"roughnessFactor":0.4000000059604645
			}
		},
		{
			"name":"7288_barramundi fish_col",
			"normalTexture":{
				"index":1
			},
			"occlusionTexture":{
				"index":2
			},
			"pbrMetallicRoughness":{
				"baseColorTexture":{
					"index":3
				},
				"metallicRoughnessTexture":{
					"index":2
				}
			}
		},
		{
			"doubleSided":true,
			"name":"Material",
			"pbrMetallicRoughness":{
				"baseColorFactor":[
					0.2622501254081726,
					0.6307570934295654,
					0.049706727266311646,
					1
				],
				"metallicFactor":0,
				"roughnessFactor":0.5
			}
		},
		{
			"doubleSided":true,
			"name":"Material.005",
			"pbrMetallicRoughness":{
				"baseColorFactor":[
					0.8000074625015259,
					0.039191897958517075,
					0.017334990203380585,
					1
				],
				"metallicFactor":0.9212598204612732,
				"roughnessFactor":0.5
			}
		},
		{
			"doubleSided":true,
			"name":"Material.010",
			"pbrMetallicRoughness":{
				"baseColorFactor":[
					0.03943532332777977,
					0.8000074625015259,
					0.09197451174259186,
					1
				],
				"metallicFactor":0.7952755689620972,
				"roughnessFactor":0.11023622006177902
			}
		},
		{
			"doubleSided":true,
			"emissiveFactor":[
				0.03996186017933279,
				0.03995339631964856,
				0.03995226383138095
			],
			"name":"Material.007",
			"pbrMetallicRoughness":{
				"baseColorFactor":[
					0.800000011920929,
					0.800000011920929,
					0.800000011920929,
					1
				],
				"metallicFactor":0,
				"roughnessFactor":0.5
			}
		},
		{
			"doubleSided":true,
			"name":"Material.003",
			"pbrMetallicRoughness":{
				"baseColorFactor":[
					0.09365398436784744,
					0.0822814553976059,
					0.29579684138298035,
					1
				],
				"metallicFactor":0.08661417663097382,
				"roughnessFactor":0.9291338324546814
			}
		},
		{
			"doubleSided":true,
			"name":"Material.006",
			"pbrMetallicRoughness":{
				"baseColorFactor":[
					0.13131818175315857,
					0.09107110649347305,
					0.6843295097351074,
					1
				],
				"metallicFactor":0.819649338722229,
				"roughnessFactor":0.11027203500270844
			}
		},
		{
			"doubleSided":true,
			"name":"Material.004",
			"pbrMetallicRoughness":{
				"baseColorFactor":[
					0.924167275428772,
					0.16539981961250305,
					0.11958710849285126,
					1
				]
			}
		},
		{
			"doubleSided":true,
			"name":"Material.002",
			"pbrMetallicRoughness":{
				"baseColorFactor":[
					0.03943532332777977,
					0.8000074625015259,
					0.09197451174259186,
					1
				],
				"metallicFactor":0.7952755689620972,
				"roughnessFactor":0.11023622006177902
			}
		},
		{
			"doubleSided":true,
			"emissiveFactor":[
				0.71931415082841,
				0.463405614736196,
				0.01744298814222578
			],
			"name":"Material.008",
			"pbrMetallicRoughness":{
				"baseColorFactor":[
					0.8008357286453247,
					0.5147711634635925,
					0.019251210615038872,
					1
				],
				"metallicFactor":0.05511811003088951,
				"roughnessFactor":0.5
			}
		},
		{
			"doubleSided":true,
			"name":"Material.014",
			"pbrMetallicRoughness":{
				"baseColorFactor":[
					0.8000074625015259,
					0.039191897958517075,
					0.017334990203380585,
					1
				],
				"metallicFactor":0.9212598204612732,
				"roughnessFactor":0.10629922151565552
			}
		},
		{
			"doubleSided":true,
			"name":"Material.015",
			"pbrMetallicRoughness":{
				"baseColorFactor":[
					0.8000074625015259,
					0.039191897958517075,
					0.017334990203380585,
					1
				],
				"metallicFactor":0.9212598204612732,
				"roughnessFactor":0.10629922151565552
			}
		}
	],
	"meshes":[
		{
			"name":"Cube.001",
			"primitives":[
				{
					"attributes":{
						"POSITION":0,
						"NORMAL":1,
						"TEXCOORD_0":2,
						"TANGENT":3
					},
					"indices":4,
					"material":0
				}
			]
		},
		{
			"name":"barramundi_fish_Hero",
			"primitives":[
				{
					"attributes":{
						"POSITION":5,
						"NORMAL":6,
						"TEXCOORD_0":7,
						"TANGENT":8
					},
					"indices":9,
					"material":1
				}
			]
		},
		{
			"name":"Cone",
			"primitives":[
				{
					"attributes":{
						"POSITION":10,
						"NORMAL":11,
						"TEXCOORD_0":12
					},
					"indices":13,
					"material":2
				}
			]
		},
		{
			"name":"Icosphere",
			"primitives":[
				{
					"attributes":{
						"POSITION":14,
						"NORMAL":15,
						"TEXCOORD_0":16,
						"TANGENT":17
					},
					"indices":18,
					"material":3
				}
			]
		},
		{
			"name":"Cone.001",
			"primitives":[
				{
					"attributes":{
						"POSITION":19,
						"NORMAL":20,
						"TEXCOORD_0":21
					},
					"indices":22,
					"material":4
				}
			]
		},
		{
			"name":"Cone.002",
			"primitives":[
				{
					"attributes":{
						"POSITION":23,
						"NORMAL":24,
						"TEXCOORD_0":25
					},
					"indices":22,
					"material":4
				}
			]
		},
		{
			"name":"Cone.003",
			"primitives":[
				{
					"attributes":{
						"POSITION":26,
						"NORMAL":27,
						"TEXCOORD_0":28
					},
					"indices":13,
					"material":5
				}
			]
		},
		{
			"name":"Cone.004",
			"primitives":[
				{
					"attributes":{
						"POSITION":29,
						"NORMAL":30,
						"TEXCOORD_0":31
					},
					"indices":13,
					"material":6
				}
			]
		},
		{
			"name":"Cone.006",
			"primitives":[
				{
					"attributes":{
						"POSITION":32,
						"NORMAL":33,
						"TEXCOORD_0":34
					},
					"indices":22,
					"material":7
				}
			]
		},
		{
			"name":"Cone.005",
			"primitives":[
				{
					"attributes":{
						"POSITION":35,
						"NORMAL":36,
						"TEXCOORD_0":37
					},
					"indices":13,
					"material":8
				}
			]
		},
		{
			"name":"Cone.007",
			"primitives":[
				{
					"attributes":{
						"POSITION":38,
						"NORMAL":39,
						"TEXCOORD_0":40
					},
					"indices":13,
					"material":9
				}
			]
		},
		{
			"name":"Cone.008",
			"primitives":[
				{
					"attributes":{
						"POSITION":41,
						"NORMAL":42,
						"TEXCOORD_0":43
					},
					"indices":13,
					"material":10
				}
			]
		},
		{
			"name":"Sphere",
			"primitives":[
				{
					"attributes":{
						"POSITION":44,
						"NORMAL":45,
						"TEXCOORD_0":46,
						"TANGENT":47
					},
					"indices":48,
					"material":11
				}
			]
		},
		{
			"name":"Sphere.001",
			"primitives":[
				{
					"attributes":{
						"POSITION":49,
						"NORMAL":50,
						"TEXCOORD_0":51,
						"TANGENT":52
					},
					"indices":53,
					"material":12
				}
			]
		}
	],
	"textures":[
		{
			"sampler":0,
			"source":0
		},
		{
			"sampler":0,
			"source":1
		},
		{
			"sampler":0,
			"source":2
		},
		{
			"sampler":0,
			"source":3
		}
	],
	"images":[
		{
			"mimeType":"image/png",
			"name":"diceUVs",
			"uri":"diceUVs.png"
		},
		{
			"mimeType":"image/png",
			"name":"BarramundiFish_normal",
			"uri":"BarramundiFish_normal.png"
		},
		{
			"mimeType":"image/png",
			"name":"BarramundiFish_occlusionRoughnessMetallic",
			"uri":"BarramundiFish_occlusionRoughnessMetallic.png"
		},
		{
			"mimeType":"image/png",
			"name":"BarramundiFish_baseColor",
			"uri":"BarramundiFish_baseColor.png"
		}
	],
	"accessors":[
		{
			"bufferView":0,
			"componentType":5126,
			"count":24,
			"max":[
				1,
				1,
				1
			],
			"min":[
				-1,
				-1,
				-1
			],
			"type":"VEC3"
		},
		{
			"bufferView":1,
			"componentType":5126,
			"count":24,
			"type":"VEC3"
		},
		{
			"bufferView":2,
			"componentType":5126,
			"count":24,
			"type":"VEC2"
		},
		{
			"bufferView":3,
			"componentType":5126,
			"count":24,
			"type":"VEC4"
		},
		{
			"bufferView":4,
			"componentType":5123,
			"count":36,
			"type":"SCALAR"
		},
		{
			"bufferView":5,
			"componentType":5126,
			"count":2188,
			"max":[
				0.06906196475028992,
				0.2866283059120178,
				0.3253729045391083
			],
			"min":[
				-0.0738416239619255,
				-0.000878453254699707,
				-0.3177383244037628
			],
			"type":"VEC3"
		},
		{
			"bufferView":6,
			"componentType":5126,
			"count":2188,
			"type":"VEC3"
		},
		{
			"bufferView":7,
			"componentType":5126,
			"count":2188,
			"type":"VEC2"
		},
		{
			"bufferView":8,
			"componentType":5126,
			"count":2188,
			"type":"VEC4"
		},
		{
			"bufferView":9,
			"componentType":5123,
			"count":11592,
			"type":"SCALAR"
		},
		{
			"bufferView":10,
			"componentType":5126,
			"count":128,
			"max":[
				1,
				1,
				1
			],
			"min":[
				-1,
				-1,
				-1
			],
			"type":"VEC3"
		},
		{
			"bufferView":11,
			"componentType":5126,
			"count":128,
			"type":"VEC3"
		},
		{
			"bufferView":12,
			"componentType":5126,
			"count":128,
			"type":"VEC2"
		},
		{
			"bufferView":13,
			"componentType":5123,
			"count":186,
			"type":"SCALAR"
		},
		{
			"bufferView":14,
			"componentType":5126,
			"count":240,
			"max":[
				0.9510578513145447,
				1,
				0.9999999403953552
			],
			"min":[
				-0.9510578513145447,
				-1,
				-0.9999999403953552
			],
			"type":"VEC3"
		},
		{
			"bufferView":15,
			"componentType":5126,
			"count":240,
			"type":"VEC3"
		},
		{
			"bufferView":16,
			"componentType":5126,
			"count":240,
			"type":"VEC2"
		},
		{
			"bufferView":17,
			"componentType":5126,
			"count":240,
			"type":"VEC4"
		},
		{
			"bufferView":18,
			"componentType":5123,
			"count":240,
			"type":"SCALAR"
		},
		{
			"bufferView":19,
			"componentType":5126,
			"count":65,
			"max":[
				1,
				1,
				1
			],
			"min":[
				-1,
				-1,
				-1
			],
			"type":"VEC3"
		},
		{
			"bufferView":20,
			"componentType":5126,
			"count":65,
			"type":"VEC3"
		},
		{
			"bufferView":21,
			"componentType":5126,
			"count":65,
			"type":"VEC2"
		},
		{
			"bufferView":22,
			"componentType":5123,
			"count":186,
			"type":"SCALAR"
		},
		{
			"bufferView":23,
			"componentType":5126,
			"count":65,
			"max":[
				1,
				1,
				1
			],
			"min":[
				-1,
				-1,
				-1
			],
			"type":"VEC3"
		},
		{
			"bufferView":24,
			"componentType":5126,
			"count":65,
			"type":"VEC3"
		},
		{
			"bufferView":25,
			"componentType":5126,
			"count":65,
			"type":"VEC2"
		},
		{
			"bufferView":26,
			"componentType":5126,
			"count":128,
			"max":[
				1,
				1,
				1
			],
			"min":[
				-1,
				-1,
				-1
			],
			"type":"VEC3"
		},
		{
			"bufferView":27,
			"componentType":5126,
			"count":128,
			"type":"VEC3"
		},
		{
			"bufferView":28,
			"componentType":5126,
			"count":128,
			"type":"VEC2"
		},
		{
			"bufferView":29,
			"componentType":5126,
			"count":128,
			"max":[
				1,
				1,
				1
			],
			"min":[
				-1,
				-1,
				-1
			],
			"type":"VEC3"
		},
		{
			"bufferView":30,
			"componentType":5126,
			"count":128,
			"type":"VEC3"
		},
		{
			"bufferView":31,
			"componentType":5126,
			"count":128,
			"type":"VEC2"
		},
		{
			"bufferView":32,
			"componentType":5126,
			"count":65,
			"max":[
				1,
				1,
				1
			],
			"min":[
				-1,
				-1,
				-1
			],
			"type":"VEC3"
		},
		{
			"bufferView":33,
			"componentType":5126,
			"count":65,
			"type":"VEC3"
		},
		{
			"bufferView":34,
			"componentType":5126,
			"count":65,
			"type":"VEC2"
		},
		{
			"bufferView":35,
			"componentType":5126,
			"count":128,
			"max":[
				1,
				1,
				1
			],
			"min":[
				-1,
				-1,
				-1
			],
			"type":"VEC3"
		},
		{
			"bufferView":36,
			"componentType":5126,
			"count":128,
			"type":"VEC3"
		},
		{
			"bufferView":37,
			"componentType":5126,
			"count":128,
			"type":"VEC2"
		},
		{
			"bufferView":38,
			"componentType":5126,
			"count":128,
			"max":[
				1,
				1,
				1
			],
			"min":[
				-1,
				-1,
				-1
			],
			"type":"VEC3"
		},
		{
			"bufferView":39,
			"componentType":5126,
			"count":128,
			"type":"VEC3"
		},
		{
			"bufferView":40,
			"componentType":5126,
			"count":128,
			"type":"VEC2"
		},
		{
			"bufferView":41,
			"componentType":5126,
			"count":128,
			"max":[
				1,
				1,
				1
			],
			"min":[
				-1,
				-1,
				-1
			],
			"type":"VEC3"
		},
		{
			"bufferView":42,
			"componentType":5126,
			"count":128,
			"type":"VEC3"
		},
		{
			"bufferView":43,
			"componentType":5126,
			"count":128,
			"type":"VEC2"
		},
		{
			"bufferView":44,
			"componentType":5126,
			"count":1984,
			"max":[
				0.9999997019767761,
				1,
				0.9999993443489075
			],
			"min":[
				-0.9999990463256836,
				-1,
				-1
			],
			"type":"VEC3"
		},
		{
			"bufferView":45,
			"componentType":5126,
			"count":1984,
			"type":"VEC3"
		},
		{
			"bufferView":46,
			"componentType":5126,
			"count":1984,
			"type":"VEC2"
		},
		{
			"bufferView":47,
			"componentType":5126,
			"count":1984,
			"type":"VEC4"
		},
		{
			"bufferView":48,
			"componentType":5123,
			"count":2880,
			"type":"SCALAR"
		},
		{
			"bufferView":49,
			"componentType":5126,
			"count":559,
			"max":[
				0.9999997019767761,
				1,
				0.9999993443489075
			],
			"min":[
				-0.9999990463256836,
				-1,
				-1
			],
			"type":"VEC3"
		},
		{
			"bufferView":50,
			"componentType":5126,
			"count":559,
			"type":"VEC3"
		},
		{
			"bufferView":51,
			"componentType":5126,
			"count":559,
			"type":"VEC2"
		},
		{
			"bufferView":52,
			"componentType":5126,
			"count":559,
			"type":"VEC4"
		},
		{
			"bufferView":53,
			"componentType":5123,
			"count":2880,
			"type":"SCALAR"
		}
	],
	"bufferViews":[
		{
			"buffer":0,
			"byteLength":288,
			"byteOffset":0,
			"target":34962
		},
		{
			"buffer":0,
			"byteLength":288,
			"byteOffset":288,
			"target":34962
		},
		{
			"buffer":0,
			"byteLength":192,
			"byteOffset":576,
			"target":34962
		},
		{
			"buffer":0,
			"byteLength":384,
			"byteOffset":768,
			"target":34962
		},
		{
			"buffer":0,
			"byteLength":72,
			"byteOffset":1152,
			"target":34963
		},
		{
			"buffer":0,
			"byteLength":26256,
			"byteOffset":1224,
			"target":34962
		},
		{
			"buffer":0,
			"byteLength":26256,
			"byteOffset":27480,
			"target":34962
		},
		{
			"buffer":0,
			"byteLength":17504,
			"byteOffset":53736,
			"target":34962
		},
		{
			"buffer":0,
			"byteLength":35008,
			"byteOffset":71240,
			"target":34962
		},
		{
			"buffer":0,
			"byteLength":23184,
			"byteOffset":106248,
			"target":34963
		},
		{
			"buffer":0,
			"byteLength":1536,
			"byteOffset":129432,
			"target":34962
		},
		{
			"buffer":0,
			"byteLength":1536,
			"byteOffset":130968,
			"target":34962
		},
		{
			"buffer":0,
			"byteLength":1024,
			"byteOffset":132504,
			"target":34962
		},
		{
			"buffer":0,
			"byteLength":372,
			"byteOffset":133528,
			"target":34963
		},
		{
			"buffer":0,
			"byteLength":2880,
			"byteOffset":133900,
			"target":34962
		},
		{
			"buffer":0,
			"byteLength":2880,
			"byteOffset":136780,
			"target":34962
		},
		{
			"buffer":0,
			"byteLength":1920,
			"byteOffset":139660,
			"target":34962
		},
		{
			"buffer":0,
			"byteLength":3840,
			"byteOffset":141580,
			"target":34962
		},
		{
			"buffer":0,
			"byteLength":480,
			"byteOffset":145420,
			"target":34963
		},
		{
			"buffer":0,
			"byteLength":780,
			"byteOffset":145900,
			"target":34962
		},
		{
			"buffer":0,
			"byteLength":780,
			"byteOffset":146680,
			"target":34962
		},
		{
			"buffer":0,
			"byteLength":520,
			"byteOffset":147460,
			"target":34962
		},
		{
			"buffer":0,
			"byteLength":372,
			"byteOffset":147980,
			"target":34963
		},
		{
			"buffer":0,
			"byteLength":780,
			"byteOffset":148352,
			"target":34962
		},
		{
			"buffer":0,
			"byteLength":780,
			"byteOffset":149132,
			"target":34962
		},
		{
			"buffer":0,
			"byteLength":520,
			"byteOffset":149912,
			"target":34962
		},
		{
			"buffer":0,
			"byteLength":1536,
			"byteOffset":150432,
			"target":34962
		},
		{
			"buffer":0,
			"byteLength":1536,
			"byteOffset":151968,
			"target":34962
		},
		{
			"buffer":0,
			"byteLength":1024,
			"byteOffset":153504,
			"target":34962
		},
		{
			"buffer":0,
			"byteLength":1536,
			"byteOffset":154528,
			"target":34962
		},
		{
			"buffer":0,
			"byteLength":1536,
			"byteOffset":156064,
			"target":34962
		},
		{
			"buffer":0,
			"byteLength":1024,
			"byteOffset":157600,
			"target":34962
		},
		{
			"buffer":0,
			"byteLength":780,
			"byteOffset":158624,
			"target":34962
		},
		{
			"buffer":0,
			"byteLength":780,
			"byteOffset":159404,
			"target":34962
		},
		{
			"buffer":0,
			"byteLength":520,
			"byteOffset":160184,
			"target":34962
		},
		{
			"buffer":0,
			"byteLength":1536,
			"byteOffset":160704,
			"target":34962
		},
		{
			"buffer":0,
			"byteLength":1536,
			"byteOffset":162240,
			"target":34962
		},
		{
			"buffer":0,
			"byteLength":1024,
			"byteOffset":163776,
			"target":34962
		},
		{
			"buffer":0,
			"byteLength":1536,
			"byteOffset":164800,
			"target":34962
		},
		{
			"buffer":0,
			"byteLength":1536,
			"byteOffset":166336,
			"target":34962
		},
		{
			"buffer":0,
			"byteLength":1024,
			"byteOffset":167872,
			"target":34962
		},
		{
			"buffer":0,
			"byteLength":1536,
			"byteOffset":168896,
			"target":34962
		},
		{
			"buffer":0,
			"byteLength":1536,
			"byteOffset":170432,
			"target":34962
		},
		{
			"buffer":0,
			"byteLength":1024,
			"byteOffset":171968,
			"target":34962
		},
		{
			"buffer":0,
			"byteLength":23808,
			"byteOffset":172992,
			"target":34962
		},
		{
			"buffer":0,
			"byteLength":23808,
			"byteOffset":196800,
			"target":34962
		},
		{
			"buffer":0,
			"byteLength":15872,
			"byteOffset":220608,
			"target":34962
		},
		{
			"buffer":0,
			"byteLength":31744,
			"byteOffset":236480,
			"target":34962
		},
		{
			"buffer":0,
			"byteLength":5760,
			"byteOffset":268224,
			"target":34963
		},
		{
			"buffer":0,
			"byteLength":6708,
			"byteOffset":273984,
			"target":34962
		},
		{
			"buffer":0,
			"byteLength":6708,
			"byteOffset":280692,
			"target":34962
		},
		{
			"buffer":0,
			"byteLength":4472,
			"byteOffset":287400,
			"target":34962
		},
		{
			"buffer":0,
			"byteLength":8944,
			"byteOffset":291872,
			"target":34962
		},
		{
			"buffer":0,
			"byteLength":5760,
			"byteOffset":300816,
			"target":34963
		}
	],
	"samplers":[
		{
			"magFilter":9729,
			"minFilter":9987
		}
	],
	"buffers":[
		{
			"byteLength":306576,
			"uri":"multipleObjects.bin"
		}
	]
}
