{
	"asset":{
		"generator":"Khronos glTF Blender I/O v4.1.62",
		"version":"2.0"
	},
	"extensionsUsed":[
		"KHR_materials_sheen",
		"KHR_materials_transmission"
	],
	"scene":0,
	"scenes":[
		{
			"name":"Scene",
			"nodes":[
				0,
				1,
				2,
				3,
				4,
				5,
				13
			]
		}
	],
	"nodes":[
		{
			"mesh":0,
			"name":"ToyCar",
			"translation":[
				-1.7207285165786743,
				1.4483041763305664,
				-2.5068130493164062
			]
		},
		{
			"mesh":1,
			"name":"Fabric",
			"translation":[
				-1.7073489427566528,
				0.7779077887535095,
				-2.689835548400879
			]
		},
		{
			"mesh":2,
			"name":"Glass",
			"translation":[
				-1.71999192237854,
				1.6658412218093872,
				-2.693455934524536
			]
		},
		{
			"mesh":3,
			"name":"Emissive Cube",
			"scale":[
				0.2133370041847229,
				0.21333728730678558,
				0.21333728730678558
			],
			"translation":[
				-2.376420021057129,
				2.618572950363159,
				-0.220253586769104
			]
		},
		{
			"mesh":4,
			"name":"Emissive Cube with Texture",
			"scale":[
				0.2133370041847229,
				0.2133370041847229,
				0.2133370041847229
			],
			"translation":[
				-2.364827871322632,
				3.17628812789917,
				-0.2192232757806778
			]
		},
		{
			"mesh":5,
			"name":"node_damagedHelmet_-6514",
			"rotation":[
				0.7071069478988647,
				0,
				0,
				0.7071066498756409
			],
			"scale":[
				0.2335415929555893,
				0.23354162275791168,
				0.23354162275791168
			],
			"translation":[
				-0.5119929909706116,
				0.9499937295913696,
				-2.6662278175354004
			]
		},
		{
			"mesh":6,
			"name":"Cube with skybox",
			"scale":[
				0.8406561613082886,
				0.8406561613082886,
				0.8406561613082886
			],
			"translation":[
				1.1168692111968994,
				4.019801139831543,
				5.293672561645508
			]
		},
		{
			"mesh":7,
			"name":"Simple cube",
			"scale":[
				0.8635547161102295,
				0.8635547161102295,
				0.8635547161102295
			],
			"translation":[
				0.12505078315734863,
				6.7276997566223145,
				2.6722495555877686
			]
		},
		{
			"children":[
				6,
				7
			],
			"name":"child1",
			"translation":[
				-2.020184278488159,
				0,
				0
			]
		},
		{
			"name":"DELETE!",
			"translation":[
				-2.5806236267089844,
				3.6404898166656494,
				-0.6162550449371338
			]
		},
		{
			"name":"DELETE2",
			"scale":[
				0.9546586275100708,
				0.9546586275100708,
				0.9546586275100708
			],
			"translation":[
				-0.6926324963569641,
				0.94622403383255,
				-3.386091470718384
			]
		},
		{
			"mesh":8,
			"name":"skybox",
			"scale":[
				0.3584381341934204,
				0.3584381341934204,
				0.3584381341934204
			],
			"translation":[
				-3.922534942626953,
				4.122899055480957,
				5.169922828674316
			]
		},
		{
			"mesh":9,
			"name":"skybox3",
			"scale":[
				0.33991411328315735,
				0.33991411328315735,
				0.33991411328315735
			],
			"translation":[
				1.699468970298767,
				5.653335094451904,
				1.103433609008789
			]
		},
		{
			"children":[
				8,
				9,
				10,
				11,
				12
			],
			"name":"rootNode",
			"scale":[
				0.38961589336395264,
				0.38961589336395264,
				0.38961589336395264
			],
			"translation":[
				0.025171756744384766,
				0.019557476043701172,
				-1.0411509275436401
			]
		}
	],
	"materials":[
		{
			"doubleSided":true,
			"emissiveFactor":[
				1,
				1,
				1
			],
			"emissiveTexture":{
				"index":0
			},
			"name":"ToyCar.001",
			"normalTexture":{
				"index":1
			},
			"pbrMetallicRoughness":{
				"baseColorTexture":{
					"index":2
				},
				"metallicRoughnessTexture":{
					"index":3
				}
			}
		},
		{
			"doubleSided":true,
			"extensions":{
				"KHR_materials_sheen":{
					"sheenColorFactor":[
						1.0,
						0.0,
						0.0
					],
					"sheenRoughnessFactor":0.5
				}
			},
			"name":"Fabric",
			"normalTexture":{
				"index":4
			},
			"pbrMetallicRoughness":{
				"baseColorTexture":{
					"index":5
				},
				"metallicFactor":0.036363635212183,
				"roughnessFactor":0.8681818246841431
			}
		},
		{
			"extensions":{
				"KHR_materials_transmission":{
					"transmissionFactor":1
				}
			},
			"name":"Glass",
			"pbrMetallicRoughness":{
				"baseColorFactor":[
					0.30000001192092896,
					0.800000011920929,
					0.30000001192092896,
					1
				],
				"metallicFactor":0.013636363670229912,
				"roughnessFactor":0.027272727340459824
			}
		},
		{
			"doubleSided":true,
			"name":"DarkMetallic",
			"pbrMetallicRoughness":{
				"baseColorFactor":[
					0.42027390003204346,
					0.042027391493320465,
					0.042027391493320465,
					1
				],
				"metallicFactor":0.6894736886024475,
				"roughnessFactor":0.2052631378173828
			}
		},
		{
			"doubleSided":true,
			"emissiveFactor":[
				0.3499999940395355,
				0.3345910551787945,
				0.09467434274853392
			],
			"name":"Emissive",
			"pbrMetallicRoughness":{
				"baseColorFactor":[
					1,
					0.9559744596481323,
					0.270498126745224,
					1
				],
				"metallicFactor":0.9727270007133484,
				"roughnessFactor":0.9727270007133484
			}
		},
		{
			"doubleSided":true,
			"name":"blueMetallic",
			"pbrMetallicRoughness":{
				"baseColorFactor":[
					0.0678245797753334,
					0.0701543390750885,
					1,
					1
				],
				"metallicFactor":0.6894736886024475,
				"roughnessFactor":0.2052631378173828
			}
		},
		{
			"doubleSided":true,
			"emissiveFactor":[
				0.3499999940395355,
				0.3499999940395355,
				0.3499999940395355
			],
			"emissiveTexture":{
				"index":6
			},
			"name":"EmissiveTexture",
			"pbrMetallicRoughness":{
				"baseColorTexture":{
					"index":7
				},
				"metallicFactor":0.9727270007133484,
				"roughnessFactor":0.9727270007133484
			}
		},
		{
			"emissiveFactor":[
				1,
				1,
				1
			],
			"emissiveTexture":{
				"index":8
			},
			"name":"Material_MR",
			"normalTexture":{
				"index":9
			},
			"pbrMetallicRoughness":{
				"baseColorTexture":{
					"index":10
				},
				"metallicRoughnessTexture":{
					"index":11
				}
			}
		},
		{
			"doubleSided":true,
			"name":"skybox material2",
			"pbrMetallicRoughness":{
				"baseColorTexture":{
					"index":12
				},
				"metallicFactor":0,
				"roughnessFactor":0.5
			}
		},
		{
			"doubleSided":true,
			"name":"Simple material",
			"normalTexture":{
				"index":13
			},
			"pbrMetallicRoughness":{
				"baseColorTexture":{
					"index":14
				},
				"metallicRoughnessTexture":{
					"index":15
				}
			}
		},
		{
			"doubleSided":true,
			"name":"skybox material",
			"pbrMetallicRoughness":{
				"baseColorTexture":{
					"index":16
				},
				"metallicFactor":0.7909091114997864,
				"roughnessFactor":0.11818182468414307
			}
		}
	],
	"meshes":[
		{
			"name":"ToyCar.001",
			"primitives":[
				{
					"attributes":{
						"POSITION":0,
						"NORMAL":1,
						"TEXCOORD_0":2,
						"TANGENT":3
					},
					"indices":4,
					"material":0
				}
			]
		},
		{
			"name":"Fabric",
			"primitives":[
				{
					"attributes":{
						"POSITION":5,
						"NORMAL":6,
						"TEXCOORD_0":7,
						"TANGENT":8
					},
					"indices":9,
					"material":1
				}
			]
		},
		{
			"name":"Glass",
			"primitives":[
				{
					"attributes":{
						"POSITION":10,
						"NORMAL":11,
						"TEXCOORD_0":12,
						"TANGENT":13
					},
					"indices":14,
					"material":2
				}
			]
		},
		{
			"name":"EmissiveCube",
			"primitives":[
				{
					"attributes":{
						"POSITION":15,
						"NORMAL":16,
						"TEXCOORD_0":17,
						"TANGENT":18
					},
					"indices":19,
					"material":3
				},
				{
					"attributes":{
						"POSITION":20,
						"NORMAL":21,
						"TEXCOORD_0":22,
						"TANGENT":23
					},
					"indices":24,
					"material":4
				}
			]
		},
		{
			"name":"EmissiveCubeWithTexture",
			"primitives":[
				{
					"attributes":{
						"POSITION":25,
						"NORMAL":26,
						"TEXCOORD_0":27,
						"TANGENT":28
					},
					"indices":19,
					"material":5
				},
				{
					"attributes":{
						"POSITION":29,
						"NORMAL":30,
						"TEXCOORD_0":31,
						"TANGENT":32
					},
					"indices":24,
					"material":6
				}
			]
		},
		{
			"name":"mesh_helmet_LP_13930damagedHelmet",
			"primitives":[
				{
					"attributes":{
						"POSITION":33,
						"NORMAL":34,
						"TEXCOORD_0":35,
						"TANGENT":36
					},
					"indices":37,
					"material":7
				}
			]
		},
		{
			"name":"Cube",
			"primitives":[
				{
					"attributes":{
						"POSITION":38,
						"NORMAL":39,
						"TEXCOORD_0":40,
						"TANGENT":41
					},
					"indices":42,
					"material":8
				}
			]
		},
		{
			"name":"Simple cube mesh",
			"primitives":[
				{
					"attributes":{
						"POSITION":43,
						"NORMAL":44,
						"TEXCOORD_0":45,
						"TANGENT":46
					},
					"indices":47,
					"material":9
				}
			]
		},
		{
			"name":"skybox",
			"primitives":[
				{
					"attributes":{
						"POSITION":48,
						"NORMAL":49,
						"TEXCOORD_0":50,
						"TANGENT":51
					},
					"indices":52,
					"material":10
				}
			]
		},
		{
			"name":"skybox3 mesh",
			"primitives":[
				{
					"attributes":{
						"POSITION":53,
						"NORMAL":54,
						"TEXCOORD_0":55,
						"TANGENT":56
					},
					"indices":57,
					"material":8
				}
			]
		}
	],
	"textures":[
		{
			"sampler":0,
			"source":0
		},
		{
			"sampler":0,
			"source":1
		},
		{
			"sampler":0,
			"source":2
		},
		{
			"sampler":0,
			"source":3
		},
		{
			"sampler":0,
			"source":4
		},
		{
			"sampler":0,
			"source":5
		},
		{
			"sampler":0,
			"source":6
		},
		{
			"sampler":0,
			"source":6
		},
		{
			"sampler":0,
			"source":7
		},
		{
			"sampler":0,
			"source":8
		},
		{
			"sampler":0,
			"source":9
		},
		{
			"sampler":0,
			"source":10
		},
		{
			"sampler":0,
			"source":11
		},
		{
			"sampler":0,
			"source":1
		},
		{
			"sampler":0,
			"source":12
		},
		{
			"sampler":0,
			"source":3
		},
		{
			"sampler":0,
			"source":11
		}
	],
	"images":[
		{
			"mimeType":"image/png",
			"name":"ToyCar_emissive",
			"uri":"ToyCar_emissive.png"
		},
		{
			"mimeType":"image/png",
			"name":"ToyCar_normal",
			"uri":"ToyCar_normal.png"
		},
		{
			"mimeType":"image/png",
			"name":"ToyCar_basecolor",
			"uri":"ToyCar_basecolor.png"
		},
		{
			"mimeType":"image/png",
			"name":"metallic-roughness",
			"uri":"metallic-roughness.png"
		},
		{
			"mimeType":"image/png",
			"name":"Fabric_normal",
			"uri":"Fabric_normal.png"
		},
		{
			"mimeType":"image/png",
			"name":"Fabric_baseColor",
			"uri":"Fabric_baseColor.png"
		},
		{
			"mimeType":"image/png",
			"name":"texture",
			"uri":"texture.png"
		},
		{
			"mimeType":"image/jpeg",
			"name":"Default_emissive",
			"uri":"Default_emissive.jpg"
		},
		{
			"mimeType":"image/jpeg",
			"name":"Default_normal",
			"uri":"Default_normal.jpg"
		},
		{
			"mimeType":"image/jpeg",
			"name":"Default_albedo",
			"uri":"Default_albedo.jpg"
		},
		{
			"mimeType":"image/png",
			"name":"Default_metallic.png-Default_roughness.png",
			"uri":"Default_metallic_png-Default_roughness_png.png"
		},
		{
			"mimeType":"image/png",
			"name":"skybox",
			"uri":"skybox.png"
		},
		{
			"mimeType":"image/png",
			"name":"diceUVs",
			"uri":"diceUVs.png"
		}
	],
	"accessors":[
		{
			"bufferView":0,
			"componentType":5126,
			"count":67770,
			"max":[
				0.3992801904678345,
				0.3046070337295532,
				0.6503241062164307
			],
			"min":[
				-0.39782607555389404,
				-0.19068694114685059,
				-0.9849791526794434
			],
			"type":"VEC3"
		},
		{
			"bufferView":1,
			"componentType":5126,
			"count":67770,
			"type":"VEC3"
		},
		{
			"bufferView":2,
			"componentType":5126,
			"count":67770,
			"type":"VEC2"
		},
		{
			"bufferView":3,
			"componentType":5126,
			"count":67770,
			"type":"VEC4"
		},
		{
			"bufferView":4,
			"componentType":5125,
			"count":266511,
			"type":"SCALAR"
		},
		{
			"bufferView":5,
			"componentType":5126,
			"count":8965,
			"max":[
				1.625565528869629,
				0.4805697798728943,
				1.6005901098251343
			],
			"min":[
				-1.5037535429000854,
				-0.25310707092285156,
				-1.550858497619629
			],
			"type":"VEC3"
		},
		{
			"bufferView":6,
			"componentType":5126,
			"count":8965,
			"type":"VEC3"
		},
		{
			"bufferView":7,
			"componentType":5126,
			"count":8965,
			"type":"VEC2"
		},
		{
			"bufferView":8,
			"componentType":5126,
			"count":8965,
			"type":"VEC4"
		},
		{
			"bufferView":9,
			"componentType":5123,
			"count":52815,
			"type":"SCALAR"
		},
		{
			"bufferView":10,
			"componentType":5126,
			"count":1523,
			"max":[
				0.24461233615875244,
				0.0637441873550415,
				0.4167633056640625
			],
			"min":[
				-0.24463152885437012,
				-0.06874275207519531,
				-0.3685438632965088
			],
			"type":"VEC3"
		},
		{
			"bufferView":11,
			"componentType":5126,
			"count":1523,
			"type":"VEC3"
		},
		{
			"bufferView":12,
			"componentType":5126,
			"count":1523,
			"type":"VEC2"
		},
		{
			"bufferView":13,
			"componentType":5126,
			"count":1523,
			"type":"VEC4"
		},
		{
			"bufferView":14,
			"componentType":5123,
			"count":7482,
			"type":"SCALAR"
		},
		{
			"bufferView":15,
			"componentType":5126,
			"count":20,
			"max":[
				1,
				1,
				1
			],
			"min":[
				-1,
				-1,
				-1
			],
			"type":"VEC3"
		},
		{
			"bufferView":16,
			"componentType":5126,
			"count":20,
			"type":"VEC3"
		},
		{
			"bufferView":17,
			"componentType":5126,
			"count":20,
			"type":"VEC2"
		},
		{
			"bufferView":18,
			"componentType":5126,
			"count":20,
			"type":"VEC4"
		},
		{
			"bufferView":19,
			"componentType":5123,
			"count":30,
			"type":"SCALAR"
		},
		{
			"bufferView":20,
			"componentType":5126,
			"count":4,
			"max":[
				1,
				1,
				1
			],
			"min":[
				-1,
				-1,
				1
			],
			"type":"VEC3"
		},
		{
			"bufferView":21,
			"componentType":5126,
			"count":4,
			"type":"VEC3"
		},
		{
			"bufferView":22,
			"componentType":5126,
			"count":4,
			"type":"VEC2"
		},
		{
			"bufferView":23,
			"componentType":5126,
			"count":4,
			"type":"VEC4"
		},
		{
			"bufferView":24,
			"componentType":5123,
			"count":6,
			"type":"SCALAR"
		},
		{
			"bufferView":25,
			"componentType":5126,
			"count":20,
			"max":[
				1,
				1,
				1
			],
			"min":[
				-1,
				-1,
				-1
			],
			"type":"VEC3"
		},
		{
			"bufferView":26,
			"componentType":5126,
			"count":20,
			"type":"VEC3"
		},
		{
			"bufferView":27,
			"componentType":5126,
			"count":20,
			"type":"VEC2"
		},
		{
			"bufferView":28,
			"componentType":5126,
			"count":20,
			"type":"VEC4"
		},
		{
			"bufferView":29,
			"componentType":5126,
			"count":4,
			"max":[
				1,
				1,
				1
			],
			"min":[
				-1,
				-1,
				1
			],
			"type":"VEC3"
		},
		{
			"bufferView":30,
			"componentType":5126,
			"count":4,
			"type":"VEC3"
		},
		{
			"bufferView":31,
			"componentType":5126,
			"count":4,
			"type":"VEC2"
		},
		{
			"bufferView":32,
			"componentType":5126,
			"count":4,
			"type":"VEC4"
		},
		{
			"bufferView":33,
			"componentType":5126,
			"count":14806,
			"max":[
				0.9424954056739807,
				0.8128451108932495,
				0.900973916053772
			],
			"min":[
				-0.9474585652351379,
				-1.18715500831604,
				-0.9009949564933777
			],
			"type":"VEC3"
		},
		{
			"bufferView":34,
			"componentType":5126,
			"count":14806,
			"type":"VEC3"
		},
		{
			"bufferView":35,
			"componentType":5126,
			"count":14806,
			"type":"VEC2"
		},
		{
			"bufferView":36,
			"componentType":5126,
			"count":14806,
			"type":"VEC4"
		},
		{
			"bufferView":37,
			"componentType":5123,
			"count":46356,
			"type":"SCALAR"
		},
		{
			"bufferView":38,
			"componentType":5126,
			"count":24,
			"max":[
				0.3799999952316284,
				0.3799999952316284,
				0.3799999952316284
			],
			"min":[
				-0.3799999952316284,
				-0.3799999952316284,
				-0.3799999952316284
			],
			"type":"VEC3"
		},
		{
			"bufferView":39,
			"componentType":5126,
			"count":24,
			"type":"VEC3"
		},
		{
			"bufferView":40,
			"componentType":5126,
			"count":24,
			"type":"VEC2"
		},
		{
			"bufferView":41,
			"componentType":5126,
			"count":24,
			"type":"VEC4"
		},
		{
			"bufferView":42,
			"componentType":5123,
			"count":36,
			"type":"SCALAR"
		},
		{
			"bufferView":43,
			"componentType":5126,
			"count":24,
			"max":[
				1,
				1,
				1
			],
			"min":[
				-1,
				-1,
				-1
			],
			"type":"VEC3"
		},
		{
			"bufferView":44,
			"componentType":5126,
			"count":24,
			"type":"VEC3"
		},
		{
			"bufferView":45,
			"componentType":5126,
			"count":24,
			"type":"VEC2"
		},
		{
			"bufferView":46,
			"componentType":5126,
			"count":24,
			"type":"VEC4"
		},
		{
			"bufferView":47,
			"componentType":5123,
			"count":36,
			"type":"SCALAR"
		},
		{
			"bufferView":48,
			"componentType":5126,
			"count":195,
			"max":[
				0.9999995231628418,
				1.0000007152557373,
				1
			],
			"min":[
				-1.0000005960464478,
				-0.9999992847442627,
				-1
			],
			"type":"VEC3"
		},
		{
			"bufferView":49,
			"componentType":5126,
			"count":195,
			"type":"VEC3"
		},
		{
			"bufferView":50,
			"componentType":5126,
			"count":195,
			"type":"VEC2"
		},
		{
			"bufferView":51,
			"componentType":5126,
			"count":195,
			"type":"VEC4"
		},
		{
			"bufferView":52,
			"componentType":5123,
			"count":900,
			"type":"SCALAR"
		},
		{
			"bufferView":53,
			"componentType":5126,
			"count":445,
			"max":[
				1.0000028610229492,
				0.9999998807907104,
				1
			],
			"min":[
				-0.9999973773956299,
				-1.0000001192092896,
				-1
			],
			"type":"VEC3"
		},
		{
			"bufferView":54,
			"componentType":5126,
			"count":445,
			"type":"VEC3"
		},
		{
			"bufferView":55,
			"componentType":5126,
			"count":445,
			"type":"VEC2"
		},
		{
			"bufferView":56,
			"componentType":5126,
			"count":445,
			"type":"VEC4"
		},
		{
			"bufferView":57,
			"componentType":5123,
			"count":2292,
			"type":"SCALAR"
		}
	],
	"bufferViews":[
		{
			"buffer":0,
			"byteLength":813240,
			"byteOffset":0,
			"target":34962
		},
		{
			"buffer":0,
			"byteLength":813240,
			"byteOffset":813240,
			"target":34962
		},
		{
			"buffer":0,
			"byteLength":542160,
			"byteOffset":1626480,
			"target":34962
		},
		{
			"buffer":0,
			"byteLength":1084320,
			"byteOffset":2168640,
			"target":34962
		},
		{
			"buffer":0,
			"byteLength":1066044,
			"byteOffset":3252960,
			"target":34963
		},
		{
			"buffer":0,
			"byteLength":107580,
			"byteOffset":4319004,
			"target":34962
		},
		{
			"buffer":0,
			"byteLength":107580,
			"byteOffset":4426584,
			"target":34962
		},
		{
			"buffer":0,
			"byteLength":71720,
			"byteOffset":4534164,
			"target":34962
		},
		{
			"buffer":0,
			"byteLength":143440,
			"byteOffset":4605884,
			"target":34962
		},
		{
			"buffer":0,
			"byteLength":105630,
			"byteOffset":4749324,
			"target":34963
		},
		{
			"buffer":0,
			"byteLength":18276,
			"byteOffset":4854956,
			"target":34962
		},
		{
			"buffer":0,
			"byteLength":18276,
			"byteOffset":4873232,
			"target":34962
		},
		{
			"buffer":0,
			"byteLength":12184,
			"byteOffset":4891508,
			"target":34962
		},
		{
			"buffer":0,
			"byteLength":24368,
			"byteOffset":4903692,
			"target":34962
		},
		{
			"buffer":0,
			"byteLength":14964,
			"byteOffset":4928060,
			"target":34963
		},
		{
			"buffer":0,
			"byteLength":240,
			"byteOffset":4943024,
			"target":34962
		},
		{
			"buffer":0,
			"byteLength":240,
			"byteOffset":4943264,
			"target":34962
		},
		{
			"buffer":0,
			"byteLength":160,
			"byteOffset":4943504,
			"target":34962
		},
		{
			"buffer":0,
			"byteLength":320,
			"byteOffset":4943664,
			"target":34962
		},
		{
			"buffer":0,
			"byteLength":60,
			"byteOffset":4943984,
			"target":34963
		},
		{
			"buffer":0,
			"byteLength":48,
			"byteOffset":4944044,
			"target":34962
		},
		{
			"buffer":0,
			"byteLength":48,
			"byteOffset":4944092,
			"target":34962
		},
		{
			"buffer":0,
			"byteLength":32,
			"byteOffset":4944140,
			"target":34962
		},
		{
			"buffer":0,
			"byteLength":64,
			"byteOffset":4944172,
			"target":34962
		},
		{
			"buffer":0,
			"byteLength":12,
			"byteOffset":4944236,
			"target":34963
		},
		{
			"buffer":0,
			"byteLength":240,
			"byteOffset":4944248,
			"target":34962
		},
		{
			"buffer":0,
			"byteLength":240,
			"byteOffset":4944488,
			"target":34962
		},
		{
			"buffer":0,
			"byteLength":160,
			"byteOffset":4944728,
			"target":34962
		},
		{
			"buffer":0,
			"byteLength":320,
			"byteOffset":4944888,
			"target":34962
		},
		{
			"buffer":0,
			"byteLength":48,
			"byteOffset":4945208,
			"target":34962
		},
		{
			"buffer":0,
			"byteLength":48,
			"byteOffset":4945256,
			"target":34962
		},
		{
			"buffer":0,
			"byteLength":32,
			"byteOffset":4945304,
			"target":34962
		},
		{
			"buffer":0,
			"byteLength":64,
			"byteOffset":4945336,
			"target":34962
		},
		{
			"buffer":0,
			"byteLength":177672,
			"byteOffset":4945400,
			"target":34962
		},
		{
			"buffer":0,
			"byteLength":177672,
			"byteOffset":5123072,
			"target":34962
		},
		{
			"buffer":0,
			"byteLength":118448,
			"byteOffset":5300744,
			"target":34962
		},
		{
			"buffer":0,
			"byteLength":236896,
			"byteOffset":5419192,
			"target":34962
		},
		{
			"buffer":0,
			"byteLength":92712,
			"byteOffset":5656088,
			"target":34963
		},
		{
			"buffer":0,
			"byteLength":288,
			"byteOffset":5748800,
			"target":34962
		},
		{
			"buffer":0,
			"byteLength":288,
			"byteOffset":5749088,
			"target":34962
		},
		{
			"buffer":0,
			"byteLength":192,
			"byteOffset":5749376,
			"target":34962
		},
		{
			"buffer":0,
			"byteLength":384,
			"byteOffset":5749568,
			"target":34962
		},
		{
			"buffer":0,
			"byteLength":72,
			"byteOffset":5749952,
			"target":34963
		},
		{
			"buffer":0,
			"byteLength":288,
			"byteOffset":5750024,
			"target":34962
		},
		{
			"buffer":0,
			"byteLength":288,
			"byteOffset":5750312,
			"target":34962
		},
		{
			"buffer":0,
			"byteLength":192,
			"byteOffset":5750600,
			"target":34962
		},
		{
			"buffer":0,
			"byteLength":384,
			"byteOffset":5750792,
			"target":34962
		},
		{
			"buffer":0,
			"byteLength":72,
			"byteOffset":5751176,
			"target":34963
		},
		{
			"buffer":0,
			"byteLength":2340,
			"byteOffset":5751248,
			"target":34962
		},
		{
			"buffer":0,
			"byteLength":2340,
			"byteOffset":5753588,
			"target":34962
		},
		{
			"buffer":0,
			"byteLength":1560,
			"byteOffset":5755928,
			"target":34962
		},
		{
			"buffer":0,
			"byteLength":3120,
			"byteOffset":5757488,
			"target":34962
		},
		{
			"buffer":0,
			"byteLength":1800,
			"byteOffset":5760608,
			"target":34963
		},
		{
			"buffer":0,
			"byteLength":5340,
			"byteOffset":5762408,
			"target":34962
		},
		{
			"buffer":0,
			"byteLength":5340,
			"byteOffset":5767748,
			"target":34962
		},
		{
			"buffer":0,
			"byteLength":3560,
			"byteOffset":5773088,
			"target":34962
		},
		{
			"buffer":0,
			"byteLength":7120,
			"byteOffset":5776648,
			"target":34962
		},
		{
			"buffer":0,
			"byteLength":4584,
			"byteOffset":5783768,
			"target":34963
		}
	],
	"samplers":[
		{
			"magFilter":9729,
			"minFilter":9987
		}
	],
	"buffers":[
		{
			"byteLength":5788352,
			"uri":"node%20hierarchy.bin"
		}
	]
}
