{
	"asset":{
		"generator":"Khronos glTF Blender I/O v4.0.44",
		"version":"2.0"
	},
	"scene":0,
	"scenes":[
		{
			"name":"Scene",
			"nodes":[
				0,
				1,
				2,
				3,
				4
			]
		}
	],
	"nodes":[
		{
			"mesh":0,
			"name":"Cylinder.008",
			"translation":[
				-0.04290612041950226,
				-0.0015827324241399765,
				0.06511002779006958
			]
		},
		{
			"mesh":1,
			"name":"Cylinder.009",
			"translation":[
				0.02850344032049179,
				-0.0015827324241399765,
				0.06538063287734985
			]
		},
		{
			"mesh":2,
			"name":"Cylinder.010",
			"translation":[
				-0.04290612041950226,
				-0.0015827324241399765,
				-0.13222473859786987
			]
		},
		{
			"mesh":3,
			"name":"Cylinder",
			"translation":[
				0.02850344032049179,
				-0.0015827324241399765,
				-0.13222473859786987
			]
		},
		{
			"mesh":4,
			"name":"Cube.002",
			"translation":[
				-0.006913714110851288,
				0.08658341318368912,
				-0.03360474482178688
			]
		}
	],
	"materials":[
		{
			"doubleSided":true,
			"name":"Material.057",
			"pbrMetallicRoughness":{
				"baseColorFactor":[
					0.8000000715255737,
					0.37073570489883423,
					0.2039446085691452,
					1
				],
				"metallicFactor":0,
				"roughnessFactor":0.5
			}
		},
		{
			"doubleSided":true,
			"name":"Material.058",
			"pbrMetallicRoughness":{
				"baseColorFactor":[
					0.8000000715255737,
					0.37073570489883423,
					0.2039446085691452,
					1
				],
				"metallicFactor":0,
				"roughnessFactor":0.5
			}
		}
	],
	"meshes":[
		{
			"name":"Cylinder.134",
			"primitives":[
				{
					"attributes":{
						"POSITION":0,
						"NORMAL":1,
						"TEXCOORD_0":2,
						"TANGENT":3
					},
					"indices":4,
					"material":0
				}
			]
		},
		{
			"name":"Cylinder.135",
			"primitives":[
				{
					"attributes":{
						"POSITION":5,
						"NORMAL":6,
						"TEXCOORD_0":7,
						"TANGENT":8
					},
					"indices":4,
					"material":0
				}
			]
		},
		{
			"name":"Cylinder.136",
			"primitives":[
				{
					"attributes":{
						"POSITION":9,
						"NORMAL":10,
						"TEXCOORD_0":11,
						"TANGENT":12
					},
					"indices":4,
					"material":0
				}
			]
		},
		{
			"name":"Cylinder.137",
			"primitives":[
				{
					"attributes":{
						"POSITION":13,
						"NORMAL":14,
						"TEXCOORD_0":15,
						"TANGENT":16
					},
					"indices":4,
					"material":0
				}
			]
		},
		{
			"name":"Cube.440",
			"primitives":[
				{
					"attributes":{
						"POSITION":17,
						"NORMAL":18,
						"TEXCOORD_0":19,
						"TANGENT":20
					},
					"indices":21,
					"material":1
				}
			]
		}
	],
	"accessors":[
		{
			"bufferView":0,
			"componentType":5126,
			"count":34,
			"max":[
				0.006454767193645239,
				0.10301817953586578,
				0.006454767193645239
			],
			"min":[
				-0.006454767193645239,
				-0.10301817953586578,
				-0.006454767193645239
			],
			"type":"VEC3"
		},
		{
			"bufferView":1,
			"componentType":5126,
			"count":34,
			"type":"VEC3"
		},
		{
			"bufferView":2,
			"componentType":5126,
			"count":34,
			"type":"VEC2"
		},
		{
			"bufferView":3,
			"componentType":5126,
			"count":34,
			"type":"VEC4"
		},
		{
			"bufferView":4,
			"componentType":5123,
			"count":84,
			"type":"SCALAR"
		},
		{
			"bufferView":5,
			"componentType":5126,
			"count":34,
			"max":[
				0.006454767193645239,
				0.10301817953586578,
				0.006454767193645239
			],
			"min":[
				-0.006454767193645239,
				-0.10301817953586578,
				-0.006454767193645239
			],
			"type":"VEC3"
		},
		{
			"bufferView":6,
			"componentType":5126,
			"count":34,
			"type":"VEC3"
		},
		{
			"bufferView":7,
			"componentType":5126,
			"count":34,
			"type":"VEC2"
		},
		{
			"bufferView":8,
			"componentType":5126,
			"count":34,
			"type":"VEC4"
		},
		{
			"bufferView":9,
			"componentType":5126,
			"count":34,
			"max":[
				0.006454767193645239,
				0.10301817953586578,
				0.006454767193645239
			],
			"min":[
				-0.006454767193645239,
				-0.10301817953586578,
				-0.006454767193645239
			],
			"type":"VEC3"
		},
		{
			"bufferView":10,
			"componentType":5126,
			"count":34,
			"type":"VEC3"
		},
		{
			"bufferView":11,
			"componentType":5126,
			"count":34,
			"type":"VEC2"
		},
		{
			"bufferView":12,
			"componentType":5126,
			"count":34,
			"type":"VEC4"
		},
		{
			"bufferView":13,
			"componentType":5126,
			"count":34,
			"max":[
				0.006454767193645239,
				0.10301817953586578,
				0.006454767193645239
			],
			"min":[
				-0.006454767193645239,
				-0.10301817953586578,
				-0.006454767193645239
			],
			"type":"VEC3"
		},
		{
			"bufferView":14,
			"componentType":5126,
			"count":34,
			"type":"VEC3"
		},
		{
			"bufferView":15,
			"componentType":5126,
			"count":34,
			"type":"VEC2"
		},
		{
			"bufferView":16,
			"componentType":5126,
			"count":34,
			"type":"VEC4"
		},
		{
			"bufferView":17,
			"componentType":5126,
			"count":672,
			"max":[
				0.05110045149922371,
				0.004785625729709864,
				0.11477475613355637
			],
			"min":[
				-0.05110045149922371,
				-0.004785625729709864,
				-0.11477476358413696
			],
			"type":"VEC3"
		},
		{
			"bufferView":18,
			"componentType":5126,
			"count":672,
			"type":"VEC3"
		},
		{
			"bufferView":19,
			"componentType":5126,
			"count":672,
			"type":"VEC2"
		},
		{
			"bufferView":20,
			"componentType":5126,
			"count":672,
			"type":"VEC4"
		},
		{
			"bufferView":21,
			"componentType":5123,
			"count":924,
			"type":"SCALAR"
		}
	],
	"bufferViews":[
		{
			"buffer":0,
			"byteLength":408,
			"byteOffset":0,
			"target":34962
		},
		{
			"buffer":0,
			"byteLength":408,
			"byteOffset":408,
			"target":34962
		},
		{
			"buffer":0,
			"byteLength":272,
			"byteOffset":816,
			"target":34962
		},
		{
			"buffer":0,
			"byteLength":544,
			"byteOffset":1088,
			"target":34962
		},
		{
			"buffer":0,
			"byteLength":168,
			"byteOffset":1632,
			"target":34963
		},
		{
			"buffer":0,
			"byteLength":408,
			"byteOffset":1800,
			"target":34962
		},
		{
			"buffer":0,
			"byteLength":408,
			"byteOffset":2208,
			"target":34962
		},
		{
			"buffer":0,
			"byteLength":272,
			"byteOffset":2616,
			"target":34962
		},
		{
			"buffer":0,
			"byteLength":544,
			"byteOffset":2888,
			"target":34962
		},
		{
			"buffer":0,
			"byteLength":408,
			"byteOffset":3432,
			"target":34962
		},
		{
			"buffer":0,
			"byteLength":408,
			"byteOffset":3840,
			"target":34962
		},
		{
			"buffer":0,
			"byteLength":272,
			"byteOffset":4248,
			"target":34962
		},
		{
			"buffer":0,
			"byteLength":544,
			"byteOffset":4520,
			"target":34962
		},
		{
			"buffer":0,
			"byteLength":408,
			"byteOffset":5064,
			"target":34962
		},
		{
			"buffer":0,
			"byteLength":408,
			"byteOffset":5472,
			"target":34962
		},
		{
			"buffer":0,
			"byteLength":272,
			"byteOffset":5880,
			"target":34962
		},
		{
			"buffer":0,
			"byteLength":544,
			"byteOffset":6152,
			"target":34962
		},
		{
			"buffer":0,
			"byteLength":8064,
			"byteOffset":6696,
			"target":34962
		},
		{
			"buffer":0,
			"byteLength":8064,
			"byteOffset":14760,
			"target":34962
		},
		{
			"buffer":0,
			"byteLength":5376,
			"byteOffset":22824,
			"target":34962
		},
		{
			"buffer":0,
			"byteLength":10752,
			"byteOffset":28200,
			"target":34962
		},
		{
			"buffer":0,
			"byteLength":1848,
			"byteOffset":38952,
			"target":34963
		}
	],
	"buffers":[
		{
			"byteLength":40800,
			"uri":"Island3.bin"
		}
	]
}
