{
	"asset":{
		"generator":"Khronos glTF Blender I/O v4.0.44",
		"version":"2.0"
	},
	"scene":0,
	"scenes":[
		{
			"name":"Scene",
			"nodes":[
				0
			]
		}
	],
	"nodes":[
		{
			"mesh":0,
			"name":"banana"
		}
	],
	"materials":[
		{
			"doubleSided":true,
			"name":"banana material",
			"pbrMetallicRoughness":{
				"baseColorTexture":{
					"index":0
				},
				"metallicFactor":0.31496062874794006,
				"roughnessFactor":0.13945141434669495
			}
		}
	],
	"meshes":[
		{
			"name":"banana mesh",
			"primitives":[
				{
					"attributes":{
						"COLOR_0":0,
						"POSITION":1,
						"NORMAL":2,
						"TEXCOORD_0":3,
						"TANGENT":4
					},
					"indices":5,
					"material":0
				}
			]
		}
	],
	"textures":[
		{
			"sampler":0,
			"source":0
		}
	],
	"images":[
		{
			"mimeType":"image/png",
			"name":"Banana_BaseColor",
			"uri":"Banana_BaseColor.png"
		}
	],
	"accessors":[
		{
			"bufferView":0,
			"componentType":5126,
			"count":1478,
			"type":"VEC4"
		},
		{
			"bufferView":1,
			"componentType":5126,
			"count":1478,
			"max":[
				0.06293173879384995,
				0.04100397974252701,
				0.012292589992284775
			],
			"min":[
				-0.057120926678180695,
				-0.00853043980896473,
				-0.013051759451627731
			],
			"type":"VEC3"
		},
		{
			"bufferView":2,
			"componentType":5126,
			"count":1478,
			"type":"VEC3"
		},
		{
			"bufferView":3,
			"componentType":5126,
			"count":1478,
			"type":"VEC2"
		},
		{
			"bufferView":4,
			"componentType":5126,
			"count":1478,
			"type":"VEC4"
		},
		{
			"bufferView":5,
			"componentType":5123,
			"count":7680,
			"type":"SCALAR"
		}
	],
	"bufferViews":[
		{
			"buffer":0,
			"byteLength":23648,
			"byteOffset":0,
			"target":34962
		},
		{
			"buffer":0,
			"byteLength":17736,
			"byteOffset":23648,
			"target":34962
		},
		{
			"buffer":0,
			"byteLength":17736,
			"byteOffset":41384,
			"target":34962
		},
		{
			"buffer":0,
			"byteLength":11824,
			"byteOffset":59120,
			"target":34962
		},
		{
			"buffer":0,
			"byteLength":23648,
			"byteOffset":70944,
			"target":34962
		},
		{
			"buffer":0,
			"byteLength":15360,
			"byteOffset":94592,
			"target":34963
		}
	],
	"samplers":[
		{
			"magFilter":9729,
			"minFilter":9987
		}
	],
	"buffers":[
		{
			"byteLength":109952,
			"uri":"banana.bin"
		}
	]
}
