{
    "asset":{
        "generator":"Khronos glTF Blender I/O v3.6.28",
        "version":"2.0"
    },
    "scene":0,
    "scenes":[
        {
            "name":"Scene",
            "nodes":[
                0,
                1
            ]
        }
    ],
    "nodes":[
        {
            "name":"CesiumMan"
        },
        {
            "mesh":0,
            "name":"Cesium_Man"
        }
    ],
    "materials":[
        {
            "name":"Cesium_Man-effect",
            "pbrMetallicRoughness":{
                "baseColorTexture":{
                    "index":0
                },
                "metallicFactor":0
            }
        }
    ],
    "meshes":[
        {
            "name":"Cesium_Man",
            "primitives":[
                {
                    "attributes":{
                        "POSITION":0,
                        "NORMAL":1,
                        "TEXCOORD_0":2
                    },
                    "indices":3,
                    "material":0
                }
            ]
        }
    ],
    "textures":[
        {
            "sampler":0,
            "source":0
        }
    ],
    "images":[
        {
            "mimeType":"image/jpeg",
            "name":"CesiumMan_img0",
            "uri":"CesiumMan_img0.jpg"
        }
    ],
    "accessors":[
        {
            "bufferView":0,
            "componentType":5126,
            "count":3273,
            "max":[
                0.310248464345932,
                0.6779475212097168,
                0.08005502820014954
            ],
            "min":[
                -0.3066462576389313,
                -4.990830149154135e-08,
                -0.05894983932375908
            ],
            "type":"VEC3"
        },
        {
            "bufferView":1,
            "componentType":5126,
            "count":3273,
            "type":"VEC3"
        },
        {
            "bufferView":2,
            "componentType":5126,
            "count":3273,
            "type":"VEC2"
        },
        {
            "bufferView":3,
            "componentType":5123,
            "count":14016,
            "type":"SCALAR"
        }
    ],
    "bufferViews":[
        {
            "buffer":0,
            "byteLength":39276,
            "byteOffset":0,
            "target":34962
        },
        {
            "buffer":0,
            "byteLength":39276,
            "byteOffset":39276,
            "target":34962
        },
        {
            "buffer":0,
            "byteLength":26184,
            "byteOffset":78552,
            "target":34962
        },
        {
            "buffer":0,
            "byteLength":28032,
            "byteOffset":104736,
            "target":34963
        }
    ],
    "samplers":[
        {
            "magFilter":9729,
            "minFilter":9987
        }
    ],
    "buffers":[
        {
            "byteLength":132768,
            "uri":"normalized.bin"
        }
    ]
}
