{
	"asset":{
		"generator":"Khronos glTF Blender I/O v4.0.44",
		"version":"2.0"
	},
	"extensionsUsed":[
		"KHR_materials_specular",
		"KHR_materials_ior"
	],
	"scene":0,
	"scenes":[
		{
			"name":"Scene",
			"nodes":[
				0,
				1
			]
		}
	],
	"nodes":[
		{
			"mesh":0,
			"name":"Crate",
			"translation":[
				9.904720306396484,
				0,
				0
			]
		},
		{
			"mesh":1,
			"name":"Crate fbx"
		}
	],
	"materials":[
		{
			"doubleSided":true,
			"extensions":{
				"KHR_materials_specular":{
					"specularFactor":0.24416124820709229
				},
				"KHR_materials_ior":{
					"ior":1.4500000476837158
				}
			},
			"name":"Crate Material.001",
			"normalTexture":{
				"index":0
			},
			"pbrMetallicRoughness":{
				"baseColorTexture":{
					"index":1
				},
				"metallicRoughnessTexture":{
					"index":2
				}
			}
		},
		{
			"alphaMode":"BLEND",
			"doubleSided":true,
			"extensions":{
				"KHR_materials_specular":{
					"specularFactor":0.24416124820709229
				},
				"KHR_materials_ior":{
					"ior":1.4500000476837158
				}
			},
			"name":"Crate fbx Material",
			"normalTexture":{
				"index":3
			},
			"pbrMetallicRoughness":{
				"baseColorTexture":{
					"index":4
				},
				"metallicRoughnessTexture":{
					"index":5
				}
			}
		}
	],
	"meshes":[
		{
			"name":"Crate Mesh.001",
			"primitives":[
				{
					"attributes":{
						"POSITION":0,
						"NORMAL":1,
						"TEXCOORD_0":2,
						"TANGENT":3
					},
					"indices":4,
					"material":0
				}
			]
		},
		{
			"name":"Crate fbx Mesh",
			"primitives":[
				{
					"attributes":{
						"POSITION":5,
						"NORMAL":6,
						"TEXCOORD_0":7,
						"TANGENT":8
					},
					"indices":9,
					"material":1
				}
			]
		}
	],
	"textures":[
		{
			"sampler":0,
			"source":0
		},
		{
			"sampler":0,
			"source":1
		},
		{
			"sampler":0,
			"source":2
		},
		{
			"sampler":0,
			"source":0
		},
		{
			"sampler":0,
			"source":1
		},
		{
			"sampler":0,
			"source":2
		}
	],
	"images":[
		{
			"mimeType":"image/png",
			"name":"Wooden Crate_Crate_Normal",
			"uri":"Wooden%20Crate_Crate_Normal.png"
		},
		{
			"mimeType":"image/png",
			"name":"Wooden Crate_Crate_BaseColor",
			"uri":"Wooden%20Crate_Crate_BaseColor.png"
		},
		{
			"mimeType":"image/png",
			"name":"Wooden Crate_Crate_Metallic-Wooden Crate_Crate_Roughness",
			"uri":"Wooden%20Crate_Crate_Metallic-Wooden%20Crate_Crate_Roughness.png"
		}
	],
	"accessors":[
		{
			"bufferView":0,
			"componentType":5126,
			"count":904,
			"max":[
				2.500000476837158,
				5,
				2.5
			],
			"min":[
				-2.499999523162842,
				0,
				-2.5
			],
			"type":"VEC3"
		},
		{
			"bufferView":1,
			"componentType":5126,
			"count":904,
			"type":"VEC3"
		},
		{
			"bufferView":2,
			"componentType":5126,
			"count":904,
			"type":"VEC2"
		},
		{
			"bufferView":3,
			"componentType":5126,
			"count":904,
			"type":"VEC4"
		},
		{
			"bufferView":4,
			"componentType":5123,
			"count":1764,
			"type":"SCALAR"
		},
		{
			"bufferView":5,
			"componentType":5126,
			"count":852,
			"max":[
				2.500000476837158,
				5,
				2.5
			],
			"min":[
				-2.499999523162842,
				0,
				-2.5
			],
			"type":"VEC3"
		},
		{
			"bufferView":6,
			"componentType":5126,
			"count":852,
			"type":"VEC3"
		},
		{
			"bufferView":7,
			"componentType":5126,
			"count":852,
			"type":"VEC2"
		},
		{
			"bufferView":8,
			"componentType":5126,
			"count":852,
			"type":"VEC4"
		},
		{
			"bufferView":9,
			"componentType":5123,
			"count":1764,
			"type":"SCALAR"
		}
	],
	"bufferViews":[
		{
			"buffer":0,
			"byteLength":10848,
			"byteOffset":0,
			"target":34962
		},
		{
			"buffer":0,
			"byteLength":10848,
			"byteOffset":10848,
			"target":34962
		},
		{
			"buffer":0,
			"byteLength":7232,
			"byteOffset":21696,
			"target":34962
		},
		{
			"buffer":0,
			"byteLength":14464,
			"byteOffset":28928,
			"target":34962
		},
		{
			"buffer":0,
			"byteLength":3528,
			"byteOffset":43392,
			"target":34963
		},
		{
			"buffer":0,
			"byteLength":10224,
			"byteOffset":46920,
			"target":34962
		},
		{
			"buffer":0,
			"byteLength":10224,
			"byteOffset":57144,
			"target":34962
		},
		{
			"buffer":0,
			"byteLength":6816,
			"byteOffset":67368,
			"target":34962
		},
		{
			"buffer":0,
			"byteLength":13632,
			"byteOffset":74184,
			"target":34962
		},
		{
			"buffer":0,
			"byteLength":3528,
			"byteOffset":87816,
			"target":34963
		}
	],
	"samplers":[
		{
			"magFilter":9729,
			"minFilter":9987
		}
	],
	"buffers":[
		{
			"byteLength":91344,
			"uri":"Wooden%20Crate.bin"
		}
	]
}
