{
	"asset":{
		"generator":"Khronos glTF Blender I/O v4.0.44",
		"version":"2.0"
	},
	"scene":0,
	"scenes":[
		{
			"name":"Scene",
			"nodes":[
				0,
				1
			]
		}
	],
	"nodes":[
		{
			"mesh":0,
			"name":"Cactus",
			"translation":[
				0.00787359569221735,
				0.5750312805175781,
				0
			]
		},
		{
			"mesh":1,
			"name":"spike",
			"scale":[
				0.06974119693040848,
				0.06974119693040848,
				0.06974119693040848
			],
			"translation":[
				0.025210320949554443,
				0.22182613611221313,
				7.62641429901123e-05
			]
		}
	],
	"materials":[
		{
			"doubleSided":true,
			"name":"cactus material",
			"pbrMetallicRoughness":{
				"baseColorFactor":[
					0.014588285237550735,
					0.1697169840335846,
					0.009284699335694313,
					1
				],
				"metallicFactor":0,
				"roughnessFactor":0.5
			}
		},
		{
			"doubleSided":true,
			"name":"spike material",
			"pbrMetallicRoughness":{
				"baseColorFactor":[
					0.6455765962600708,
					0.8017860054969788,
					0.4790157079696655,
					1
				],
				"metallicFactor":0,
				"roughnessFactor":0.5
			}
		}
	],
	"meshes":[
		{
			"name":"cactus mesh",
			"primitives":[
				{
					"attributes":{
						"POSITION":0,
						"NORMAL":1,
						"TEXCOORD_0":2,
						"TANGENT":3
					},
					"indices":4,
					"material":0
				},
				{
					"attributes":{
						"POSITION":5,
						"NORMAL":6,
						"TEXCOORD_0":7,
						"TANGENT":8
					},
					"indices":9,
					"material":1
				}
			]
		},
		{
			"name":"spike mesh",
			"primitives":[
				{
					"attributes":{
						"POSITION":10,
						"NORMAL":11,
						"TEXCOORD_0":12,
						"TANGENT":13
					},
					"indices":14,
					"material":1
				}
			]
		}
	],
	"accessors":[
		{
			"bufferView":0,
			"componentType":5126,
			"count":428,
			"max":[
				0.20230717957019806,
				0.6642116904258728,
				0.2222900688648224
			],
			"min":[
				-0.20243029296398163,
				-0.5739167928695679,
				-0.22229057550430298
			],
			"type":"VEC3"
		},
		{
			"bufferView":1,
			"componentType":5126,
			"count":428,
			"type":"VEC3"
		},
		{
			"bufferView":2,
			"componentType":5126,
			"count":428,
			"type":"VEC2"
		},
		{
			"bufferView":3,
			"componentType":5126,
			"count":428,
			"type":"VEC4"
		},
		{
			"bufferView":4,
			"componentType":5123,
			"count":2208,
			"type":"SCALAR"
		},
		{
			"bufferView":5,
			"componentType":5126,
			"count":1200,
			"max":[
				0.22762899100780487,
				0.679240345954895,
				0.24771665036678314
			],
			"min":[
				-0.22788608074188232,
				-0.5978060364723206,
				-0.24784810841083527
			],
			"type":"VEC3"
		},
		{
			"bufferView":6,
			"componentType":5126,
			"count":1200,
			"type":"VEC3"
		},
		{
			"bufferView":7,
			"componentType":5126,
			"count":1200,
			"type":"VEC2"
		},
		{
			"bufferView":8,
			"componentType":5126,
			"count":1200,
			"type":"VEC4"
		},
		{
			"bufferView":9,
			"componentType":5123,
			"count":1200,
			"type":"SCALAR"
		},
		{
			"bufferView":10,
			"componentType":5126,
			"count":12,
			"max":[
				0.06691617518663406,
				0.08936005085706711,
				0.01711052656173706
			],
			"min":[
				-0.06691651791334152,
				-0.026534007862210274,
				-1.983210563659668
			],
			"type":"VEC3"
		},
		{
			"bufferView":11,
			"componentType":5126,
			"count":12,
			"type":"VEC3"
		},
		{
			"bufferView":12,
			"componentType":5126,
			"count":12,
			"type":"VEC2"
		},
		{
			"bufferView":13,
			"componentType":5126,
			"count":12,
			"type":"VEC4"
		},
		{
			"bufferView":14,
			"componentType":5123,
			"count":12,
			"type":"SCALAR"
		}
	],
	"bufferViews":[
		{
			"buffer":0,
			"byteLength":5136,
			"byteOffset":0,
			"target":34962
		},
		{
			"buffer":0,
			"byteLength":5136,
			"byteOffset":5136,
			"target":34962
		},
		{
			"buffer":0,
			"byteLength":3424,
			"byteOffset":10272,
			"target":34962
		},
		{
			"buffer":0,
			"byteLength":6848,
			"byteOffset":13696,
			"target":34962
		},
		{
			"buffer":0,
			"byteLength":4416,
			"byteOffset":20544,
			"target":34963
		},
		{
			"buffer":0,
			"byteLength":14400,
			"byteOffset":24960,
			"target":34962
		},
		{
			"buffer":0,
			"byteLength":14400,
			"byteOffset":39360,
			"target":34962
		},
		{
			"buffer":0,
			"byteLength":9600,
			"byteOffset":53760,
			"target":34962
		},
		{
			"buffer":0,
			"byteLength":19200,
			"byteOffset":63360,
			"target":34962
		},
		{
			"buffer":0,
			"byteLength":2400,
			"byteOffset":82560,
			"target":34963
		},
		{
			"buffer":0,
			"byteLength":144,
			"byteOffset":84960,
			"target":34962
		},
		{
			"buffer":0,
			"byteLength":144,
			"byteOffset":85104,
			"target":34962
		},
		{
			"buffer":0,
			"byteLength":96,
			"byteOffset":85248,
			"target":34962
		},
		{
			"buffer":0,
			"byteLength":192,
			"byteOffset":85344,
			"target":34962
		},
		{
			"buffer":0,
			"byteLength":24,
			"byteOffset":85536,
			"target":34963
		}
	],
	"buffers":[
		{
			"byteLength":85560,
			"uri":"cactus.bin"
		}
	]
}
